<svg width="24" height="24" viewBox="0 0 24 24" fill="none" xmlns="http://www.w3.org/2000/svg">
<path d="M8.93945 13.1269C15.2733 8.9238 18.5201 20.8822 22.1395 22.9542C15.3798 27.3942 12.5588 16.4422 8.93945 13.1269Z" fill="#DDDDDD"/>
<path fill-rule="evenodd" clip-rule="evenodd" d="M24 12C24 15.0741 22.8441 17.8782 20.9432 20.0014C20.7825 19.773 20.6204 19.5419 20.4568 19.3089L20.455 19.3062C19.6775 18.1982 18.8688 17.0456 18.0337 15.9302C18.7713 14.8001 19.2 13.4501 19.2 12C19.2 8.02355 15.9764 4.8 12 4.8C8.02355 4.8 4.8 8.02355 4.8 12C4.8 15.4696 7.25418 18.366 10.5213 19.048L8.04698 23.3337C3.36169 21.6997 0 17.2424 0 12C0 5.37258 5.37258 0 12 0C18.6274 0 24 5.37258 24 12ZM8.99047 23.6195C9.9522 23.8679 10.9607 24 12 24C13.1458 24 14.2541 23.8394 15.3036 23.5395C14.0826 22.3164 13.0238 20.7931 12.0152 19.2L12 19.2C11.8489 19.2 11.6989 19.1953 11.5501 19.1862L8.99047 23.6195Z" fill="#DDDDDD"/>
</svg>
