<svg width="22" height="17" viewBox="0 0 22 17" fill="none" xmlns="http://www.w3.org/2000/svg">
<path d="M18.8716 8.04577L18.3922 7.90357V7.90357L18.8716 8.04577ZM17.8891 11.3579L18.3684 11.5001L17.8891 11.3579ZM4.11094 11.3579L4.59029 11.2157L4.11094 11.3579ZM3.12841 8.04576L2.64905 8.18797L3.12841 8.04576ZM7.98521 16.3049L8.12354 15.8244H8.12354L7.98521 16.3049ZM5.15544 14.1927L4.73414 14.4619L5.15544 14.1927ZM16.8446 14.1927L17.2659 14.4619L16.8446 14.1927ZM14.0148 16.3049L13.8765 15.8244L14.0148 16.3049ZM19.873 4.50001V4.00001H19.4804L19.3873 4.38136L19.873 4.50001ZM2.12703 4.50001V4.00001H1.49019L1.64131 4.61866L2.12703 4.50001ZM1 4.00001C0.723858 4.00001 0.5 4.22387 0.5 4.50001C0.5 4.77615 0.723858 5.00001 1 5.00001V4.00001ZM21 5.00001C21.2761 5.00001 21.5 4.77615 21.5 4.50001C21.5 4.22387 21.2761 4.00001 21 4.00001V5.00001ZM13.5 8.50001C13.5 8.22387 13.2761 8.00001 13 8.00001C12.7239 8.00001 12.5 8.22387 12.5 8.50001H13.5ZM12.5 12.5C12.5 12.7762 12.7239 13 13 13C13.2761 13 13.5 12.7762 13.5 12.5H12.5ZM14.3536 0.146447C14.1583 -0.0488155 13.8417 -0.0488155 13.6465 0.146447C13.4512 0.341709 13.4512 0.658291 13.6465 0.853553L14.3536 0.146447ZM8.59619 0.853569C8.79146 0.658307 8.79146 0.341724 8.59619 0.146462C8.40093 -0.0488003 8.08435 -0.0488003 7.88909 0.146462L8.59619 0.853569ZM9.5 8.50001C9.5 8.22387 9.27614 8.00001 9 8.00001C8.72386 8.00001 8.5 8.22387 8.5 8.50001H9.5ZM8.5 12.5C8.5 12.7762 8.72386 13 9 13C9.27614 13 9.5 12.7762 9.5 12.5H8.5ZM18.3922 7.90357L17.4097 11.2157L18.3684 11.5001L19.3509 8.18797L18.3922 7.90357ZM4.59029 11.2157L3.60776 7.90356L2.64905 8.18797L3.63159 11.5001L4.59029 11.2157ZM11 16C9.41038 16 8.71714 15.9953 8.12354 15.8244L7.84689 16.7853C8.60902 17.0048 9.47372 17 11 17V16ZM3.63159 11.5001C4.06566 12.9633 4.30704 13.7937 4.73414 14.4619L5.57674 13.9234C5.24409 13.4029 5.04238 12.7396 4.59029 11.2157L3.63159 11.5001ZM8.12354 15.8244C7.07166 15.5216 6.16622 14.8457 5.57674 13.9234L4.73414 14.4619C5.45461 15.5892 6.56126 16.4152 7.84689 16.7853L8.12354 15.8244ZM17.4097 11.2157C16.9576 12.7396 16.7559 13.4029 16.4233 13.9234L17.2659 14.4619C17.693 13.7937 17.9343 12.9633 18.3684 11.5001L17.4097 11.2157ZM11 17C12.5263 17 13.391 17.0048 14.1531 16.7853L13.8765 15.8244C13.2829 15.9953 12.5896 16 11 16V17ZM16.4233 13.9234C15.8338 14.8457 14.9283 15.5216 13.8765 15.8244L14.1531 16.7853C15.4387 16.4152 16.5454 15.5892 17.2659 14.4619L16.4233 13.9234ZM19.3509 8.18797C19.7732 6.76459 20.1198 5.59673 20.3587 4.61866L19.3873 4.38136C19.1554 5.33043 18.817 6.47173 18.3922 7.90357L19.3509 8.18797ZM3.60776 7.90356C3.183 6.47173 2.84457 5.33042 2.61274 4.38136L1.64131 4.61866C1.88022 5.59673 2.22681 6.76459 2.64905 8.18797L3.60776 7.90356ZM12.5 8.50001V12.5H13.5V8.50001H12.5ZM8.5 8.50001V12.5H9.5V8.50001H8.5ZM13.6465 0.853553L17.6465 4.85356L18.3536 4.14646L14.3536 0.146447L13.6465 0.853553ZM18 5.00001H20V4.00001H18V5.00001ZM20 5.00001H21V4.00001H20V5.00001ZM19.873 5.00001H20V4.00001H19.873V5.00001ZM1 5.00001H4.24265V4.00001H1V5.00001ZM4.24265 5.00001H18V4.00001H4.24265V5.00001ZM7.88909 0.146462L3.88909 4.14646L4.5962 4.85356L8.59619 0.853569L7.88909 0.146462ZM2.12703 5.00001H4.24265V4.00001H2.12703V5.00001Z" fill="white"/>
</svg>
