<svg width="662" height="700" viewBox="0 0 662 700" fill="none" xmlns="http://www.w3.org/2000/svg">
<path d="M458.588 2.54884C448.026 7.83004 442.158 21.9133 420.153 99.0775C408.71 138.393 393.454 189.445 386.119 212.623C378.784 235.802 372.916 257.807 372.916 261.328C372.916 268.076 379.37 276.291 382.304 273.357C383.185 272.477 387.292 273.064 391.693 274.531C398.735 277.465 400.202 276.584 411.351 262.208C418.099 253.993 424.554 246.364 426.021 246.071C427.488 245.484 428.662 242.843 428.662 239.909C428.662 237.269 430.129 233.455 431.889 231.694C440.398 223.186 453.307 196.193 465.337 161.278C470.618 146.021 475.606 133.112 476.486 132.232C478.833 129.884 487.048 179.469 490.569 217.611C501.131 332.624 467.097 484.018 411.644 567.931C385.825 606.659 340.642 643.335 303.38 655.951C241.179 676.782 149.638 645.095 85.9704 580.84C68.073 562.356 62.205 553.847 47.535 523.334C37.8528 503.676 28.1706 481.671 25.8234 474.336C22.8894 465.534 19.0752 459.959 13.794 457.319C2.05799 451.451 -0.582606 455.265 1.17779 475.51C2.93819 497.515 17.0214 535.07 32.865 559.715C84.5034 639.52 215.066 706.122 306.314 699.081C381.718 693.506 457.415 636.293 499.078 553.554C517.562 516.879 539.86 450.571 544.261 418.59C545.141 413.015 547.195 402.453 548.956 395.118C550.423 387.783 553.357 355.509 554.824 323.235C557.171 275.117 557.171 258.394 553.357 230.227C546.022 173.601 531.352 104.359 524.897 96.4368C523.136 94.383 522.55 91.7424 523.723 90.8622C525.777 88.515 533.405 97.0237 585.044 158.344C604.115 180.643 619.372 200.3 619.372 201.767C619.372 203.234 626.12 207.635 634.628 211.743C648.125 218.198 650.179 218.491 654.58 214.677C657.22 212.33 660.154 210.863 661.034 211.743C661.915 212.623 662.208 209.983 661.621 205.582C659.861 188.271 598.247 107.586 548.956 57.708C501.425 9.59044 475.606 -5.95976 458.588 2.54884ZM402.256 270.13C402.256 271.01 401.082 272.477 399.322 273.357C397.855 274.237 396.388 273.65 396.388 272.183C396.388 270.423 397.855 268.956 399.322 268.956C401.082 268.956 402.256 269.543 402.256 270.13ZM417.806 588.762C414.872 593.75 408.124 601.965 402.549 607.246C391.987 617.222 393.747 614.288 412.525 590.816C423.087 577.613 424.847 577.026 417.806 588.762ZM467.097 596.684C465.63 599.618 459.469 607.246 453.601 613.701C441.571 626.904 443.332 623.09 458.002 604.019C468.271 591.109 471.791 588.175 467.097 596.684Z" fill="#9327FF"/>
</svg>
