<svg width="278" height="187" viewBox="0 0 278 187" fill="none" xmlns="http://www.w3.org/2000/svg">
<rect x="0.5" y="33.5" width="277" height="153" rx="7.5" fill="#111111" stroke="#555555"/>
<rect x="33.5" y="0.5" width="211" height="143" rx="4.5" fill="#171A25"/>
<rect x="33.5" y="0.5" width="211" height="143" rx="4.5" stroke="#888888"/>
<rect x="52" y="95" width="174" height="36" rx="8" fill="#555555"/>
<path d="M92.1956 118.154C89.6336 118.154 87.5196 116.012 87.5196 113.31C87.5196 110.636 89.6336 108.494 92.1956 108.494C93.7636 108.494 95.1496 109.292 95.8916 110.58L95.1636 111.014C94.5336 109.978 93.4136 109.348 92.1676 109.348C90.1236 109.348 88.4436 111.098 88.4436 113.31C88.4436 115.55 90.1096 117.3 92.1676 117.3C93.4136 117.3 94.5336 116.684 95.1636 115.648L95.8916 116.082C95.1496 117.37 93.7636 118.154 92.1956 118.154ZM100.523 118.14C98.5072 118.14 96.9532 116.544 96.9532 114.584C96.9532 112.638 98.5352 111.056 100.523 111.056C102.553 111.056 104.079 112.652 104.079 114.584C104.079 116.544 102.525 118.14 100.523 118.14ZM100.523 117.314C102.021 117.314 103.211 116.082 103.211 114.598C103.211 113.114 102.021 111.882 100.523 111.882C99.0112 111.882 97.8212 113.114 97.8212 114.598C97.8212 116.082 99.0112 117.314 100.523 117.314ZM109.058 111.882C107.518 111.882 106.692 113.156 106.692 114.598V118H105.824V114.528C105.824 112.568 107.014 111.056 109.058 111.056C111.144 111.056 112.362 112.554 112.362 114.514V118H111.494V114.612C111.494 113.156 110.64 111.882 109.058 111.882ZM117.835 111.882C116.295 111.882 115.469 113.156 115.469 114.598V118H114.601V114.528C114.601 112.568 115.791 111.056 117.835 111.056C119.921 111.056 121.139 112.554 121.139 114.514V118H120.271V114.612C120.271 113.156 119.417 111.882 117.835 111.882ZM126.389 118.14C124.387 118.14 122.889 116.614 122.889 114.584C122.889 112.624 124.247 111.042 126.235 111.042C128.209 111.042 129.497 112.456 129.497 114.388V114.906H123.743C123.883 116.292 124.947 117.314 126.389 117.314C127.313 117.314 128.153 116.964 128.643 116.096L129.315 116.46C128.699 117.58 127.635 118.14 126.389 118.14ZM123.771 114.206H128.629C128.601 112.792 127.607 111.868 126.235 111.868C124.821 111.868 123.897 112.89 123.771 114.206ZM134.304 118.14C132.428 118.154 130.846 116.558 130.846 114.598C130.846 112.638 132.428 111.056 134.304 111.056C135.508 111.056 136.6 111.588 137.23 112.736L136.502 113.156C136.012 112.288 135.214 111.882 134.304 111.882C132.904 111.882 131.714 113.114 131.714 114.598C131.714 116.082 132.904 117.314 134.304 117.314C135.214 117.314 136.012 116.908 136.502 116.054L137.23 116.46C136.6 117.608 135.508 118.14 134.304 118.14ZM141.586 118.154C140.144 118.154 139.304 117.216 139.304 115.774V111.994H137.862V111.21H139.304V109.404H140.172V111.21H142.944V111.994H140.172V115.746C140.172 116.754 140.76 117.342 141.656 117.342C142.146 117.342 142.608 117.16 142.944 116.88V117.72C142.594 117.986 142.09 118.154 141.586 118.154ZM150.245 117.104L148.383 108.648H149.279L151.057 116.852C151.127 117.188 151.239 117.356 151.435 117.356C151.631 117.356 151.771 117.202 151.855 116.852L153.549 109.558C153.689 108.928 154.081 108.634 154.557 108.634C155.047 108.634 155.425 108.914 155.579 109.544L157.371 116.838C157.455 117.174 157.553 117.342 157.777 117.342C157.987 117.342 158.085 117.16 158.141 116.838L159.737 108.648H160.633L158.967 116.992C158.827 117.678 158.477 118.14 157.819 118.14C157.161 118.14 156.797 117.776 156.601 116.992L154.823 109.754C154.767 109.516 154.697 109.432 154.557 109.432C154.431 109.432 154.347 109.516 154.291 109.754L152.583 117.132C152.429 117.79 151.995 118.154 151.435 118.154C150.861 118.154 150.399 117.79 150.245 117.104ZM164.833 118.14C162.873 118.14 161.389 116.544 161.389 114.584C161.389 112.652 162.915 111.056 164.945 111.056C166.947 111.056 168.515 112.596 168.515 114.584V118H167.689V116.418C167.171 117.44 166.121 118.14 164.833 118.14ZM164.945 117.314C166.457 117.314 167.647 116.082 167.647 114.598C167.647 113.114 166.457 111.882 164.945 111.882C163.447 111.882 162.257 113.114 162.257 114.598C162.257 116.082 163.447 117.314 164.945 117.314ZM171.032 108.088H171.9V118H171.032V108.088ZM174.696 108.088H175.564V118H174.696V108.088ZM181.09 118.14C179.088 118.14 177.59 116.614 177.59 114.584C177.59 112.624 178.948 111.042 180.936 111.042C182.91 111.042 184.198 112.456 184.198 114.388V114.906H178.444C178.584 116.292 179.648 117.314 181.09 117.314C182.014 117.314 182.854 116.964 183.344 116.096L184.016 116.46C183.4 117.58 182.336 118.14 181.09 118.14ZM178.472 114.206H183.33C183.302 112.792 182.308 111.868 180.936 111.868C179.522 111.868 178.598 112.89 178.472 114.206ZM188.781 118.154C187.339 118.154 186.499 117.216 186.499 115.774V111.994H185.057V111.21H186.499V109.404H187.367V111.21H190.139V111.994H187.367V115.746C187.367 116.754 187.955 117.342 188.851 117.342C189.341 117.342 189.803 117.16 190.139 116.88V117.72C189.789 117.986 189.285 118.154 188.781 118.154Z" fill="white"/>
<rect x="63" y="13" width="20" height="20" fill="#404040"/>
<rect x="91" y="13" width="124" height="4" fill="#404040"/>
<rect x="91" y="21" width="124" height="4" fill="#404040"/>
<rect x="91" y="29" width="124" height="4" fill="#404040"/>
<rect x="91" y="37" width="124" height="4" fill="#404040"/>
<rect x="63" y="57" width="20" height="20" fill="#404040"/>
<rect x="91" y="57" width="124" height="4" fill="#404040"/>
<rect x="91" y="65" width="124" height="4" fill="#404040"/>
<rect x="91" y="73" width="124" height="4" fill="#404040"/>
<rect x="91" y="81" width="124" height="4" fill="#404040"/>
<path d="M209.172 140.115L205.263 148.328C205.1 148.728 204.731 148.992 204.319 149C204.312 149 204.312 149 204.305 149C203.9 149 203.531 148.751 203.354 148.366L196.101 127.593C195.91 127.163 195.995 126.657 196.314 126.325C196.626 125.993 197.102 125.902 197.506 126.114L217.41 134.338C217.786 134.534 218.02 134.957 217.999 135.402C217.977 135.847 217.701 136.24 217.303 136.391L209.172 140.115Z" fill="url(#paint0_linear_551_1896)"/>
<defs>
<linearGradient id="paint0_linear_551_1896" x1="218" y1="126" x2="192.816" y2="130.285" gradientUnits="userSpaceOnUse">
<stop stop-color="#9327FF"/>
<stop offset="1" stop-color="#FFA927"/>
</linearGradient>
</defs>
</svg>
