<svg width="18" height="21" viewBox="0 0 18 21" fill="none" xmlns="http://www.w3.org/2000/svg">
<path d="M15.5172 11.2795L16.0124 11.3484L15.5172 11.2795ZM15.2549 13.1645L15.7501 13.2334V13.2334L15.2549 13.1645ZM2.74514 13.1645L3.24036 13.0956L2.74514 13.1645ZM2.4828 11.2795L1.98757 11.3484L2.4828 11.2795ZM6.18365 20.2368L5.98925 20.6975H5.98925L6.18365 20.2368ZM3.47508 17.0603L3.94441 16.8879L3.47508 17.0603ZM14.5249 17.0603L14.9942 17.2328L14.5249 17.0603ZM11.8164 20.2368L11.622 19.7762L11.8164 20.2368ZM2.49776 7.45271C2.47164 7.1778 2.22761 6.97612 1.95271 7.00224C1.6778 7.02836 1.47612 7.27239 1.50224 7.54729L2.49776 7.45271ZM16.4978 7.54729C16.5239 7.27239 16.3222 7.02836 16.0473 7.00224C15.7724 6.97612 15.5284 7.1778 15.5022 7.45271L16.4978 7.54729ZM17 6C17.2761 6 17.5 5.77614 17.5 5.5C17.5 5.22386 17.2761 5 17 5V6ZM1 5C0.723858 5 0.5 5.22386 0.5 5.5C0.5 5.77614 0.723858 6 1 6V5ZM6.5 16.5C6.5 16.7761 6.72386 17 7 17C7.27614 17 7.5 16.7761 7.5 16.5H6.5ZM7.5 8.5C7.5 8.22386 7.27614 8 7 8C6.72386 8 6.5 8.22386 6.5 8.5H7.5ZM10.5 16.5C10.5 16.7761 10.7239 17 11 17C11.2761 17 11.5 16.7761 11.5 16.5H10.5ZM11.5 8.5C11.5 8.22386 11.2761 8 11 8C10.7239 8 10.5 8.22386 10.5 8.5H11.5ZM13 5.5V6H13.5V5.5H13ZM5 5.5H4.5V6H5V5.5ZM15.022 11.2106L14.7596 13.0956L15.7501 13.2334L16.0124 11.3484L15.022 11.2106ZM3.24036 13.0956L2.97803 11.2106L1.98757 11.3484L2.24991 13.2334L3.24036 13.0956ZM9 20C7.49329 20 6.88605 19.9905 6.37804 19.7762L5.98925 20.6975C6.72853 21.0095 7.58312 21 9 21V20ZM2.24991 13.2334C2.53142 15.2562 2.68031 16.347 3.00576 17.2328L3.94441 16.8879C3.66531 16.1282 3.52909 15.1703 3.24036 13.0956L2.24991 13.2334ZM6.37804 19.7762C5.37434 19.3526 4.47675 18.3368 3.94441 16.8879L3.00576 17.2328C3.60391 18.8608 4.66051 20.1368 5.98925 20.6975L6.37804 19.7762ZM14.7596 13.0956C14.4709 15.1703 14.3347 16.1282 14.0556 16.8879L14.9942 17.2328C15.3197 16.347 15.4686 15.2562 15.7501 13.2334L14.7596 13.0956ZM9 21C10.4169 21 11.2715 21.0095 12.0107 20.6975L11.622 19.7762C11.1139 19.9905 10.5067 20 9 20V21ZM14.0556 16.8879C13.5232 18.3368 12.6257 19.3526 11.622 19.7762L12.0107 20.6975C13.3395 20.1368 14.3961 18.8608 14.9942 17.2328L14.0556 16.8879ZM2.97803 11.2106C2.7562 9.61662 2.58941 8.41735 2.49776 7.45271L1.50224 7.54729C1.59643 8.53864 1.76693 9.76296 1.98757 11.3484L2.97803 11.2106ZM16.0124 11.3484C16.2331 9.76296 16.4036 8.53864 16.4978 7.54729L15.5022 7.45271C15.4106 8.41735 15.2438 9.61661 15.022 11.2106L16.0124 11.3484ZM17 5H1V6H17V5ZM7.5 16.5V8.5H6.5V16.5H7.5ZM11.5 16.5V8.5H10.5V16.5H11.5ZM12.5 4.5V5.5H13.5V4.5H12.5ZM13 5H5V6H13V5ZM5.5 5.5V4.5H4.5V5.5H5.5ZM9 1C10.933 1 12.5 2.567 12.5 4.5H13.5C13.5 2.01472 11.4853 0 9 0V1ZM9 0C6.51472 0 4.5 2.01472 4.5 4.5H5.5C5.5 2.567 7.067 1 9 1V0Z" fill="white"/>
</svg>
