<svg width="24" height="25" viewBox="0 0 24 25" fill="none" xmlns="http://www.w3.org/2000/svg">
<path d="M11.5312 19.5199L11.3492 19.0541L11.5312 19.5199ZM7.47478 20.2988L7.22478 20.7318H7.22478L7.47478 20.2988ZM6.12116 16.3964L5.62686 16.4717L6.12116 16.3964ZM6.61146 13.7941L7.04447 14.0441L6.61146 13.7941ZM6.02731 15.0314L5.53596 14.9388H5.53596L6.02731 15.0314ZM13.5397 17.7941L13.9727 18.0441L13.5397 17.7941ZM12.7602 18.9186L13.0861 19.2979L12.7602 18.9186ZM10.4099 7.21503L9.97689 6.96503L10.4099 7.21503ZM16.9051 10.965L13.1067 17.5441L13.9727 18.0441L17.7711 11.465L16.9051 10.965ZM7.04447 14.0441L10.8429 7.46503L9.97689 6.96503L6.17845 13.5441L7.04447 14.0441ZM11.3492 19.0541C10.26 19.4797 9.49353 19.7778 8.89542 19.9176C8.31038 20.0543 7.98299 20.0149 7.72478 19.8658L7.22478 20.7318C7.79904 21.0634 8.42521 21.0544 9.12293 20.8913C9.80758 20.7314 10.653 20.3997 11.7131 19.9856L11.3492 19.0541ZM5.62686 16.4717C5.79823 17.5968 5.93376 18.4948 6.13755 19.1677C6.34524 19.8535 6.65053 20.4003 7.22478 20.7318L7.72478 19.8658C7.46658 19.7167 7.26877 19.4529 7.09462 18.8779C6.91658 18.29 6.79153 17.4771 6.61546 16.3211L5.62686 16.4717ZM6.17845 13.5441C5.84811 14.1163 5.61843 14.5011 5.53596 14.9388L6.51867 15.124C6.56232 14.8922 6.68004 14.6753 7.04447 14.0441L6.17845 13.5441ZM6.61546 16.3211C6.50572 15.6005 6.47501 15.3557 6.51867 15.124L5.53596 14.9388C5.45349 15.3765 5.52739 15.8185 5.62686 16.4717L6.61546 16.3211ZM13.1067 17.5441C12.7422 18.1753 12.6132 18.3857 12.4344 18.5394L13.0861 19.2979C13.4239 19.0076 13.6423 18.6163 13.9727 18.0441L13.1067 17.5441ZM11.7131 19.9856C12.3285 19.7452 12.7482 19.5882 13.0861 19.2979L12.4344 18.5394C12.2555 18.6931 12.0281 18.7889 11.3492 19.0541L11.7131 19.9856ZM15.624 6.18394C16.4527 6.66241 17.0302 6.99704 17.4325 7.30745C17.8232 7.609 17.9874 7.84271 18.0549 8.09475L19.0209 7.83593C18.874 7.28777 18.5227 6.88568 18.0434 6.51577C17.5755 6.15473 16.9283 5.78225 16.124 5.31791L15.624 6.18394ZM17.7711 11.465C18.2355 10.6608 18.6098 10.0146 18.8344 9.46796C19.0646 8.90794 19.1677 8.38409 19.0209 7.83593L18.0549 8.09475C18.1225 8.34679 18.0971 8.63128 17.9095 9.08781C17.7163 9.55777 17.3836 10.1363 16.9051 10.965L17.7711 11.465ZM16.124 5.31791C15.3197 4.85358 14.6735 4.47925 14.1269 4.2546C13.5669 4.02444 13.0431 3.92129 12.4949 4.06816L12.7537 5.03409C13.0058 4.96655 13.2903 4.9919 13.7468 5.17953C14.2167 5.37268 14.7953 5.70547 15.624 6.18394L16.124 5.31791ZM10.8429 7.46503C11.3214 6.63629 11.656 6.05883 11.9664 5.65658C12.268 5.26582 12.5017 5.10162 12.7537 5.03409L12.4949 4.06816C11.9467 4.21504 11.5447 4.5663 11.1747 5.04564C10.8137 5.51349 10.4412 6.16077 9.97689 6.96503L10.8429 7.46503ZM17.5881 10.782L10.6599 6.78202L10.1599 7.64804L17.0881 11.648L17.5881 10.782Z" fill="white"/>
</svg>
