<svg width="80" height="32" viewBox="0 0 80 32" fill="none" xmlns="http://www.w3.org/2000/svg">
<path fill-rule="evenodd" clip-rule="evenodd" d="M5.68889 0C2.547 0 0 2.547 0 5.68889V26.3111C0 29.453 2.54701 32 5.68889 32H45.5805H46.5116H79.9991L73.1851 16L79.9991 0H46.5116H45.5805H5.68889Z" fill="#740000"/>
<path d="M14.5075 12.04C13.5462 12.04 12.8275 12.2593 12.3515 12.698C11.8848 13.1273 11.6515 13.7527 11.6515 14.574V15.946H16.3275V16.842H11.6515V21H10.6155V14.56C10.6155 13.4867 10.9515 12.6467 11.6235 12.04C12.2955 11.424 13.2428 11.116 14.4655 11.116C15.6508 11.116 16.6028 11.3727 17.3215 11.886L16.9435 12.74C16.3088 12.2733 15.4968 12.04 14.5075 12.04ZM21.4976 21.07C20.7882 21.07 20.1489 20.9113 19.5796 20.594C19.0102 20.2673 18.5622 19.8193 18.2356 19.25C17.9089 18.6807 17.7456 18.0367 17.7456 17.318C17.7456 16.5993 17.9089 15.9553 18.2356 15.386C18.5622 14.8167 19.0102 14.3733 19.5796 14.056C20.1489 13.7387 20.7882 13.58 21.4976 13.58C22.2069 13.58 22.8462 13.7387 23.4156 14.056C23.9849 14.3733 24.4282 14.8167 24.7456 15.386C25.0722 15.9553 25.2356 16.5993 25.2356 17.318C25.2356 18.0367 25.0722 18.6807 24.7456 19.25C24.4282 19.8193 23.9849 20.2673 23.4156 20.594C22.8462 20.9113 22.2069 21.07 21.4976 21.07ZM21.4976 20.188C22.0202 20.188 22.4869 20.0713 22.8976 19.838C23.3176 19.5953 23.6442 19.2547 23.8776 18.816C24.1109 18.3773 24.2276 17.878 24.2276 17.318C24.2276 16.758 24.1109 16.2587 23.8776 15.82C23.6442 15.3813 23.3176 15.0453 22.8976 14.812C22.4869 14.5693 22.0202 14.448 21.4976 14.448C20.9749 14.448 20.5036 14.5693 20.0836 14.812C19.6729 15.0453 19.3462 15.3813 19.1036 15.82C18.8702 16.2587 18.7536 16.758 18.7536 17.318C18.7536 17.878 18.8702 18.3773 19.1036 18.816C19.3462 19.2547 19.6729 19.5953 20.0836 19.838C20.5036 20.0713 20.9749 20.188 21.4976 20.188ZM28.2169 15.078C28.4502 14.5833 28.7956 14.21 29.2529 13.958C29.7196 13.706 30.2936 13.58 30.9749 13.58V14.546L30.7369 14.532C29.9622 14.532 29.3556 14.77 28.9169 15.246C28.4782 15.722 28.2589 16.3893 28.2589 17.248V21H27.2649V13.636H28.2169V15.078ZM39.4601 21.084C38.7321 21.084 38.0321 20.9673 37.3601 20.734C36.6974 20.5007 36.1841 20.1927 35.8201 19.81L36.2261 19.012C36.5808 19.3667 37.0521 19.656 37.6401 19.88C38.2281 20.0947 38.8348 20.202 39.4601 20.202C40.3374 20.202 40.9954 20.0433 41.4341 19.726C41.8728 19.3993 42.0921 18.9793 42.0921 18.466C42.0921 18.074 41.9708 17.7613 41.7281 17.528C41.4948 17.2947 41.2054 17.1173 40.8601 16.996C40.5148 16.8653 40.0341 16.7253 39.4181 16.576C38.6808 16.3893 38.0928 16.212 37.6541 16.044C37.2154 15.8667 36.8374 15.6007 36.5201 15.246C36.2121 14.8913 36.0581 14.4107 36.0581 13.804C36.0581 13.3093 36.1888 12.8613 36.4501 12.46C36.7114 12.0493 37.1128 11.7227 37.6541 11.48C38.1954 11.2373 38.8674 11.116 39.6701 11.116C40.2301 11.116 40.7761 11.1953 41.3081 11.354C41.8494 11.5033 42.3161 11.7133 42.7081 11.984L42.3581 12.81C41.9474 12.5393 41.5088 12.3387 41.0421 12.208C40.5754 12.068 40.1181 11.998 39.6701 11.998C38.8114 11.998 38.1628 12.166 37.7241 12.502C37.2948 12.8287 37.0801 13.2533 37.0801 13.776C37.0801 14.168 37.1968 14.4853 37.4301 14.728C37.6728 14.9613 37.9714 15.1433 38.3261 15.274C38.6901 15.3953 39.1754 15.5307 39.7821 15.68C40.5008 15.8573 41.0794 16.0347 41.5181 16.212C41.9661 16.38 42.3441 16.6413 42.6521 16.996C42.9601 17.3413 43.1141 17.8127 43.1141 18.41C43.1141 18.9047 42.9788 19.3573 42.7081 19.768C42.4468 20.1693 42.0408 20.4913 41.4901 20.734C40.9394 20.9673 40.2628 21.084 39.4601 21.084ZM51.8814 13.636V21H50.9294V19.544C50.6307 20.0387 50.2341 20.4167 49.7394 20.678C49.2541 20.9393 48.7034 21.07 48.0874 21.07C47.3967 21.07 46.7714 20.9113 46.2114 20.594C45.6514 20.2767 45.2127 19.8333 44.8954 19.264C44.5781 18.6947 44.4194 18.046 44.4194 17.318C44.4194 16.59 44.5781 15.9413 44.8954 15.372C45.2127 14.8027 45.6514 14.364 46.2114 14.056C46.7714 13.7387 47.3967 13.58 48.0874 13.58C48.6847 13.58 49.2214 13.706 49.6974 13.958C50.1827 14.2007 50.5794 14.56 50.8874 15.036V13.636H51.8814ZM48.1714 20.188C48.6847 20.188 49.1467 20.0713 49.5574 19.838C49.9774 19.5953 50.3041 19.2547 50.5374 18.816C50.7801 18.3773 50.9014 17.878 50.9014 17.318C50.9014 16.758 50.7801 16.2587 50.5374 15.82C50.3041 15.3813 49.9774 15.0453 49.5574 14.812C49.1467 14.5693 48.6847 14.448 48.1714 14.448C47.6487 14.448 47.1774 14.5693 46.7574 14.812C46.3467 15.0453 46.0201 15.3813 45.7774 15.82C45.5441 16.2587 45.4274 16.758 45.4274 17.318C45.4274 17.878 45.5441 18.3773 45.7774 18.816C46.0201 19.2547 46.3467 19.5953 46.7574 19.838C47.1774 20.0713 47.6487 20.188 48.1714 20.188ZM56.7217 21.07C56.059 21.07 55.5457 20.8833 55.1817 20.51C54.827 20.1367 54.6497 19.6187 54.6497 18.956V10.612H55.6437V18.872C55.6437 19.3107 55.7463 19.6467 55.9517 19.88C56.157 20.104 56.465 20.216 56.8757 20.216C57.137 20.216 57.361 20.174 57.5477 20.09L57.6177 20.916C57.3283 21.0187 57.0297 21.07 56.7217 21.07ZM61.9833 20.188C62.4406 20.188 62.8606 20.1087 63.2433 19.95C63.6353 19.782 63.9666 19.5393 64.2373 19.222L64.7973 19.866C64.4706 20.258 64.0646 20.5567 63.5793 20.762C63.0939 20.9673 62.5573 21.07 61.9693 21.07C61.2133 21.07 60.5413 20.9113 59.9533 20.594C59.3653 20.2673 58.9079 19.8193 58.5813 19.25C58.2546 18.6807 58.0913 18.0367 58.0913 17.318C58.0913 16.5993 58.2453 15.9553 58.5533 15.386C58.8706 14.8167 59.3046 14.3733 59.8553 14.056C60.4059 13.7387 61.0313 13.58 61.7313 13.58C62.3846 13.58 62.9726 13.7293 63.4953 14.028C64.0273 14.3267 64.4473 14.742 64.7553 15.274C65.0726 15.806 65.2406 16.4127 65.2593 17.094L59.2113 18.27C59.3979 18.8673 59.7339 19.3387 60.2193 19.684C60.7139 20.02 61.3019 20.188 61.9833 20.188ZM61.7313 14.434C61.2179 14.434 60.7559 14.5553 60.3453 14.798C59.9439 15.0313 59.6266 15.3627 59.3933 15.792C59.1693 16.212 59.0573 16.6973 59.0573 17.248C59.0573 17.388 59.0619 17.4907 59.0713 17.556L64.2653 16.548C64.1533 15.932 63.8686 15.428 63.4113 15.036C62.9539 14.6347 62.3939 14.434 61.7313 14.434Z" fill="white"/>
</svg>
