<svg width="24" height="25" viewBox="0 0 24 25" fill="none" xmlns="http://www.w3.org/2000/svg">
<path d="M20 13C20.2761 13 20.5 12.7761 20.5 12.5C20.5 12.2239 20.2761 12 20 12V13ZM4 12C3.72386 12 3.5 12.2239 3.5 12.5C3.5 12.7761 3.72386 13 4 13V12ZM7.64803 17.8551C7.84416 18.0495 8.16074 18.0481 8.35513 17.852C8.54952 17.6558 8.5481 17.3393 8.35197 17.1449L7.64803 17.8551ZM6.23703 15.7527L6.589 15.3976L6.23703 15.7527ZM6.23703 9.24731L5.88506 8.89218V8.89218L6.23703 9.24731ZM8.35197 7.85513C8.5481 7.66074 8.54952 7.34416 8.35513 7.14803C8.16074 6.9519 7.84416 6.95048 7.64803 7.14487L8.35197 7.85513ZM4.01989 12.8133L3.5239 12.8766L3.5239 12.8766L4.01989 12.8133ZM4.01989 12.1867L3.5239 12.1234L3.5239 12.1234L4.01989 12.1867ZM20 12H4V13H20V12ZM8.35197 17.1449L6.589 15.3976L5.88506 16.1078L7.64803 17.8551L8.35197 17.1449ZM6.589 9.60244L8.35197 7.85513L7.64803 7.14487L5.88506 8.89218L6.589 9.60244ZM6.589 15.3976C5.87769 14.6926 5.37474 14.193 5.03167 13.7658C4.69493 13.3465 4.55355 13.0457 4.51588 12.7501L3.5239 12.8766C3.59447 13.4302 3.85869 13.9023 4.25198 14.392C4.63893 14.8738 5.19044 15.4194 5.88506 16.1078L6.589 15.3976ZM5.88506 8.89218C5.19044 9.58063 4.63893 10.1262 4.25198 10.608C3.85869 11.0977 3.59447 11.5698 3.5239 12.1234L4.51588 12.2499C4.55355 11.9543 4.69493 11.6535 5.03167 11.2342C5.37474 10.807 5.87769 10.3074 6.589 9.60244L5.88506 8.89218ZM4.51588 12.7501C4.49471 12.584 4.49471 12.416 4.51588 12.2499L3.5239 12.1234C3.49203 12.3735 3.49203 12.6265 3.5239 12.8766L4.51588 12.7501Z" fill="white"/>
</svg>
