<svg width="104" height="36" viewBox="0 0 104 36" fill="none" xmlns="http://www.w3.org/2000/svg">
<path d="M10.0703 15.2705C17.2053 10.5358 20.8627 24.0067 24.9398 26.3407C17.3252 31.3423 14.1474 19.0052 10.0703 15.2705Z" fill="#FFA927"/>
<path fill-rule="evenodd" clip-rule="evenodd" d="M27.0355 14.0001C27.0355 17.4628 25.7335 20.6214 23.5925 23.013C23.4108 22.7549 23.2275 22.4936 23.0426 22.2301L23.0426 22.2301C22.1668 20.9818 21.2557 19.6834 20.3149 18.4268C21.1456 17.154 21.6284 15.6334 21.6284 14.0001C21.6284 9.52077 17.9971 5.88951 13.5177 5.88951C9.03835 5.88951 5.40709 9.52077 5.40709 14.0001C5.40709 17.9085 8.17152 21.1712 11.8517 21.9395L9.06446 26.7672C3.78673 24.9264 0 19.9055 0 14.0001C0 6.53451 6.05209 0.482422 13.5177 0.482422C20.9834 0.482422 27.0355 6.53451 27.0355 14.0001ZM10.1273 27.0892C11.2107 27.369 12.3468 27.5179 13.5177 27.5179C14.8087 27.5179 16.0574 27.3369 17.2398 26.999C15.8644 25.6212 14.6718 23.9053 13.5356 22.1108L13.5177 22.1108C13.3474 22.1108 13.1783 22.1055 13.0105 22.0952L10.1273 27.0892Z" fill="url(#paint0_linear_504_1572)"/>
<path d="M51.6445 6.90374V27.5176H47.0508V24.8926C46.2787 25.8191 45.3137 26.5396 44.1556 27.0543C42.9975 27.5433 41.7493 27.7878 40.4111 27.7878C37.6575 27.7878 35.4828 27.0286 33.8873 25.5102C32.3174 23.9661 31.5325 21.6886 31.5325 18.6776V6.90374H36.3578V18.0213C36.3578 19.8742 36.7696 21.2639 37.5931 22.1904C38.4424 23.0911 39.6391 23.5415 41.1832 23.5415C42.9074 23.5415 44.2714 23.0139 45.2751 21.9588C46.3045 20.8779 46.8192 19.3338 46.8192 17.3265V6.90374H51.6445ZM77.92 6.90374V24.3908C77.92 31.6481 74.3557 35.2767 67.227 35.2767C65.3484 35.2767 63.5469 35.0194 61.8226 34.5047C60.1241 34.0157 58.7216 33.2951 57.615 32.3429L59.7767 28.7143C60.6517 29.4606 61.7197 30.0525 62.9807 30.49C64.2417 30.9275 65.5671 31.1462 66.9568 31.1462C69.0671 31.1462 70.6112 30.6315 71.5891 29.6021C72.5928 28.5985 73.0946 27.0415 73.0946 24.9312V23.9661C72.3226 24.8154 71.3832 25.4716 70.2766 25.9349C69.17 26.3724 67.9733 26.5911 66.6866 26.5911C63.9329 26.5911 61.7583 25.8319 60.1627 24.3136C58.5929 22.7952 57.808 20.5176 57.808 17.4809V6.90374H62.6333V16.8632C62.6333 18.6904 63.0451 20.0673 63.8686 20.9937C64.7178 21.8945 65.9145 22.3448 67.4586 22.3448C69.1829 22.3448 70.5469 21.8172 71.5505 20.7621C72.5799 19.707 73.0946 18.1757 73.0946 16.1684V6.90374H77.92ZM97.3628 27.5176L92.0742 20.3761L86.747 27.5176H81.4199L89.4492 17.0562L81.7673 6.90374H87.133L92.19 13.6592L97.247 6.90374H102.458L94.7378 16.979L102.806 27.5176H97.3628Z" fill="white"/>
<defs>
<linearGradient id="paint0_linear_504_1572" x1="13.5177" y1="0.482422" x2="13.5177" y2="27.5179" gradientUnits="userSpaceOnUse">
<stop stop-color="#9327FF"/>
<stop offset="1" stop-color="#FFA927"/>
</linearGradient>
</defs>
</svg>
