<svg width="28" height="28" viewBox="0 0 28 28" fill="none" xmlns="http://www.w3.org/2000/svg">
<path d="M10.0703 15.2705C17.2053 10.5358 20.8627 24.0067 24.9398 26.3407C17.3252 31.3423 14.1474 19.0052 10.0703 15.2705Z" fill="#FFA927"/>
<path fill-rule="evenodd" clip-rule="evenodd" d="M27.0355 14.0001C27.0355 17.4628 25.7335 20.6214 23.5925 23.013C23.4108 22.7549 23.2275 22.4936 23.0426 22.2301L23.0426 22.2301C22.1668 20.9818 21.2557 19.6834 20.3149 18.4268C21.1456 17.154 21.6284 15.6334 21.6284 14.0001C21.6284 9.52077 17.9971 5.88951 13.5177 5.88951C9.03835 5.88951 5.40709 9.52077 5.40709 14.0001C5.40709 17.9085 8.17152 21.1712 11.8517 21.9395L9.06446 26.7672C3.78673 24.9264 0 19.9055 0 14.0001C0 6.53451 6.05209 0.482422 13.5177 0.482422C20.9834 0.482422 27.0355 6.53451 27.0355 14.0001ZM10.1273 27.0892C11.2107 27.369 12.3468 27.5179 13.5177 27.5179C14.8087 27.5179 16.0574 27.3369 17.2398 26.999C15.8644 25.6212 14.6718 23.9053 13.5356 22.1108L13.5177 22.1108C13.3474 22.1108 13.1783 22.1055 13.0105 22.0952L10.1273 27.0892Z" fill="url(#paint0_linear_504_1573)"/>
<defs>
<linearGradient id="paint0_linear_504_1573" x1="13.5177" y1="0.482422" x2="13.5177" y2="27.5179" gradientUnits="userSpaceOnUse">
<stop stop-color="#9327FF"/>
<stop offset="1" stop-color="#FFA927"/>
</linearGradient>
</defs>
</svg>
