<svg width="306" height="198" viewBox="0 0 306 198" fill="none" xmlns="http://www.w3.org/2000/svg">
<rect x="14.5" y="22.5" width="277" height="153" rx="7.5" fill="#111111" stroke="#555555"/>
<rect x="0.375" y="68.375" width="305.25" height="59.25" rx="3.625" fill="#171A25"/>
<rect x="0.375" y="68.375" width="305.25" height="59.25" rx="3.625" stroke="url(#paint0_linear_551_1837)" stroke-width="0.75"/>
<path d="M185.902 103.122C184.795 103.122 183.877 102.649 183.391 101.69L184.08 101.312C184.471 102.068 185.079 102.338 185.875 102.338C186.753 102.338 187.482 101.96 187.482 101.204C187.482 99.5575 183.594 100.705 183.594 98.221C183.594 97.1275 184.593 96.358 185.848 96.358C186.915 96.358 187.725 96.817 188.157 97.6L187.468 97.9915C187.117 97.33 186.55 97.141 185.862 97.141C185.133 97.141 184.431 97.5325 184.431 98.2075C184.431 99.8005 188.319 98.707 188.319 101.191C188.319 102.379 187.198 103.122 185.902 103.122ZM190.419 93.442H191.256V103H190.419V93.442ZM194.371 94.873C194.033 94.873 193.763 94.603 193.763 94.252C193.763 93.901 194.033 93.631 194.371 93.631C194.708 93.631 194.965 93.901 194.965 94.252C194.965 94.603 194.708 94.873 194.371 94.873ZM193.952 96.4525H194.789V103H193.952V96.4525ZM200.172 103.149C198.214 103.149 196.743 101.609 196.743 99.733C196.743 97.8025 198.201 96.304 200.131 96.304C201.238 96.304 202.21 96.871 202.764 97.708L202.777 93.442H203.614V99.733C203.614 101.65 202.102 103.149 200.172 103.149ZM200.172 102.352C201.63 102.352 202.777 101.164 202.777 99.733C202.777 98.302 201.63 97.1005 200.172 97.1005C198.727 97.1005 197.58 98.302 197.58 99.733C197.58 101.164 198.727 102.352 200.172 102.352ZM208.674 103.135C206.744 103.135 205.299 101.663 205.299 99.706C205.299 97.816 206.609 96.2905 208.526 96.2905C210.429 96.2905 211.671 97.654 211.671 99.517V100.016H206.123C206.258 101.353 207.284 102.338 208.674 102.338C209.565 102.338 210.375 102.001 210.848 101.164L211.496 101.515C210.902 102.595 209.876 103.135 208.674 103.135ZM206.15 99.3415H210.834C210.807 97.978 209.849 97.087 208.526 97.087C207.162 97.087 206.271 98.0725 206.15 99.3415Z" fill="url(#paint1_linear_551_1837)"/>
<path d="M234 91.25L238.629 95.8787C239.8 97.0503 239.8 98.9497 238.629 100.121L234 104.75" stroke="#373737" stroke-width="0.75" stroke-linecap="round"/>
<path d="M245.25 91.25L249.879 95.8787C251.05 97.0503 251.05 98.9497 249.879 100.121L245.25 104.75" stroke="#979797" stroke-width="0.75" stroke-linecap="round"/>
<path d="M256.5 91.25L261.129 95.8787C262.3 97.0503 262.3 98.9497 261.129 100.121L256.5 104.75" stroke="#CDCDCD" stroke-width="0.75" stroke-linecap="round"/>
<path d="M267.75 91.25L272.379 95.8787C273.55 97.0503 273.55 98.9497 272.379 100.121L267.75 104.75" stroke="white" stroke-width="0.75" stroke-linecap="round"/>
<rect x="10.375" y="78.375" width="39.25" height="39.25" rx="3.625" fill="#111111"/>
<rect x="10.375" y="78.375" width="39.25" height="39.25" rx="3.625" stroke="#262626" stroke-width="0.75"/>
<path d="M24.918 97.9974H35.5846M30.2513 103.331V97.9974L30.2513 92.6641" stroke="white" stroke-width="0.666667" stroke-linecap="round"/>
<rect x="58" y="88" width="79" height="4" fill="#404040"/>
<rect x="58" y="96" width="85" height="4" fill="#404040"/>
<rect x="58" y="104" width="67" height="4" fill="#404040"/>
<rect x="60.5" y="0.5" width="185" height="43" fill="#111111"/>
<rect x="60.5" y="0.5" width="185" height="43" stroke="#555555"/>
<rect width="20" height="20" transform="translate(72 12)" fill="#404040"/>
<path d="M76.668 21.9974H87.3346M82.0013 27.3307V21.9974L82.0013 16.6641" stroke="white" stroke-width="0.666667" stroke-linecap="round"/>
<rect x="100" y="12" width="124" height="4" fill="#404040"/>
<rect x="100" y="20" width="134" height="4" fill="#404040"/>
<rect x="100" y="28" width="105" height="4" fill="#404040"/>
<rect x="60.5" y="154.5" width="185" height="43" fill="#111111"/>
<rect x="60.5" y="154.5" width="185" height="43" stroke="#555555"/>
<rect width="20" height="20" transform="translate(72 166)" fill="#404040"/>
<path d="M76.668 175.997H87.3346M82.0013 181.331V175.997L82.0013 170.664" stroke="white" stroke-width="0.666667" stroke-linecap="round"/>
<rect x="100" y="166" width="124" height="4" fill="#404040"/>
<rect x="100" y="174" width="134" height="4" fill="#404040"/>
<rect x="100" y="182" width="105" height="4" fill="#404040"/>
<defs>
<linearGradient id="paint0_linear_551_1837" x1="306" y1="91.25" x2="-3.49087e-09" y2="91.25" gradientUnits="userSpaceOnUse">
<stop stop-color="#CFCFCF"/>
<stop offset="1" stop-color="#6B6B6B"/>
</linearGradient>
<linearGradient id="paint1_linear_551_1837" x1="180.625" y1="98.88" x2="212.5" y2="98.88" gradientUnits="userSpaceOnUse">
<stop stop-color="#D0D0D0" stop-opacity="0"/>
<stop offset="1" stop-color="#797979"/>
</linearGradient>
</defs>
</svg>
