<svg width="36" height="36" viewBox="0 0 36 36" fill="none" xmlns="http://www.w3.org/2000/svg">
<path d="M34.6666 18.0002C34.6666 27.2049 27.2047 34.6668 17.9999 34.6668C8.79517 34.6668 1.33325 27.2049 1.33325 18.0002C1.33325 8.79542 8.79517 1.3335 17.9999 1.3335C27.2047 1.3335 34.6666 8.79542 34.6666 18.0002Z" fill="#6A7181"/>
<path d="M16.9999 24.6668C16.9999 25.2191 17.4476 25.6668 17.9999 25.6668C18.5522 25.6668 18.9999 25.2191 18.9999 24.6668H16.9999ZM10.623 15.9629C10.2342 16.3551 10.237 16.9883 10.6293 17.3771C11.0216 17.7659 11.6547 17.763 12.0435 17.3708L10.623 15.9629ZM13.663 14.3162L14.3733 15.0201L14.3733 15.0201L13.663 14.3162ZM22.3368 14.3162L23.0471 13.6123L23.0471 13.6123L22.3368 14.3162ZM23.9563 17.3708C24.3451 17.763 24.9783 17.7659 25.3705 17.3771C25.7628 16.9883 25.7656 16.3551 25.3768 15.9629L23.9563 17.3708ZM17.5821 11.36L17.4557 10.368L17.4557 10.368L17.5821 11.36ZM18.4177 11.36L18.5441 10.368L18.5441 10.368L18.4177 11.36ZM18.9999 11.36C18.9999 10.8077 18.5522 10.36 17.9999 10.36C17.4476 10.36 16.9999 10.8077 16.9999 11.36H18.9999ZM33.6666 18.0002C33.6666 26.6526 26.6524 33.6668 17.9999 33.6668V35.6668C27.7569 35.6668 35.6666 27.7572 35.6666 18.0002H33.6666ZM17.9999 33.6668C9.34746 33.6668 2.33325 26.6526 2.33325 18.0002H0.333252C0.333252 27.7572 8.24289 35.6668 17.9999 35.6668V33.6668ZM2.33325 18.0002C2.33325 9.3477 9.34746 2.3335 17.9999 2.3335V0.333496C8.24289 0.333496 0.333252 8.24313 0.333252 18.0002H2.33325ZM17.9999 2.3335C26.6524 2.3335 33.6666 9.3477 33.6666 18.0002H35.6666C35.6666 8.24313 27.7569 0.333496 17.9999 0.333496V2.3335ZM18.9999 24.6668V12.6668H16.9999V24.6668H18.9999ZM12.0435 17.3708L14.3733 15.0201L12.9527 13.6123L10.623 15.9629L12.0435 17.3708ZM21.6266 15.0201L23.9563 17.3708L25.3768 15.9629L23.0471 13.6123L21.6266 15.0201ZM14.3733 15.0201C15.3188 14.0662 15.9695 13.4118 16.5209 12.969C17.0565 12.5388 17.4005 12.3913 17.7086 12.352L17.4557 10.368C16.6316 10.4731 15.945 10.8663 15.2685 11.4096C14.6079 11.9401 13.8652 12.6917 12.9527 13.6123L14.3733 15.0201ZM23.0471 13.6123C22.1347 12.6917 21.392 11.9401 20.7313 11.4096C20.0549 10.8663 19.3683 10.4731 18.5441 10.368L18.2913 12.352C18.5994 12.3913 18.9434 12.5388 19.479 12.969C20.0304 13.4118 20.6811 14.0662 21.6266 15.0201L23.0471 13.6123ZM17.7086 12.352C17.902 12.3273 18.0978 12.3273 18.2913 12.352L18.5441 10.368C18.1828 10.322 17.8171 10.322 17.4557 10.368L17.7086 12.352ZM18.9999 12.6668V11.36H16.9999V12.6668H18.9999Z" fill="black"/>
</svg>
