<svg width="21" height="23" viewBox="0 0 21 23" fill="none" xmlns="http://www.w3.org/2000/svg">
<path d="M1 11.5C1 11.2239 0.776142 11 0.5 11C0.223858 11 0 11.2239 0 11.5H1ZM20 11.5C20 11.7761 20.2239 12 20.5 12C20.7761 12 21 11.7761 21 11.5H20ZM2.90041 5L3.26041 5.34699L3.27065 5.33637L3.28024 5.32517L2.90041 5ZM18.0996 18L18.4794 18.3252L18.4856 18.318L18.4915 18.3105L18.0996 18ZM2.26269 0.502231C2.26392 0.226091 2.04107 0.001237 1.76493 4.97699e-06C1.48879 -0.00122702 1.26393 0.22163 1.2627 0.497769L2.26269 0.502231ZM1.75384 2.48571L1.25384 2.48348L1.75384 2.48571ZM5.43384 6.16571L5.43607 6.66571L5.43384 6.16571ZM7.42178 6.65685C7.69792 6.65562 7.92078 6.43076 7.91954 6.15462C7.91831 5.87848 7.69346 5.65563 7.41732 5.65686L7.42178 6.65685ZM2.16238 5.40267L1.76697 5.70868L1.76697 5.70868L2.16238 5.40267ZM2.51688 5.75717L2.21087 6.15258L2.21087 6.15258L2.51688 5.75717ZM18.6569 22.4174C18.6556 22.6935 18.8785 22.9183 19.1546 22.9196C19.4308 22.9208 19.6556 22.698 19.6569 22.4218L18.6569 22.4174ZM19.1657 20.4339L19.6657 20.4361L19.1657 20.4339ZM15.4857 16.7539L15.4835 16.2539L15.4857 16.7539ZM13.4978 16.2627C13.2216 16.264 12.9988 16.4888 13 16.765C13.0012 17.0411 13.2261 17.264 13.5022 17.2627L13.4978 16.2627ZM18.7572 17.5169L19.1526 17.2109L18.7572 17.5169ZM18.4027 17.1624L18.7087 16.767L18.4027 17.1624ZM2.32952 5.5923L1.97625 5.94614L2.32952 5.5923ZM10.5 21C5.25329 21 1 16.7467 1 11.5H0C0 17.299 4.70101 22 10.5 22V21ZM10.5 2C15.7467 2 20 6.25329 20 11.5H21C21 5.70101 16.299 1 10.5 1V2ZM3.28024 5.32517C5.02338 3.28907 7.61088 2 10.5 2V1C7.30651 1 4.44561 2.42628 2.52059 4.67483L3.28024 5.32517ZM17.7198 17.6748C15.9766 19.7109 13.3891 21 10.5 21V22C13.6935 22 16.5544 20.5737 18.4794 18.3252L17.7198 17.6748ZM1.2627 0.497769L1.25384 2.48348L2.25383 2.48794L2.26269 0.502231L1.2627 0.497769ZM5.43607 6.66571L7.42178 6.65685L7.41732 5.65686L5.43161 5.66572L5.43607 6.66571ZM1.25384 2.48348C1.25036 3.26351 1.2468 3.89078 1.30124 4.38921C1.35677 4.89769 1.4778 5.33503 1.76697 5.70868L2.5578 5.09666C2.42783 4.92871 2.34105 4.69935 2.29533 4.28065C2.2485 3.85189 2.25025 3.29148 2.25383 2.48794L1.25384 2.48348ZM5.43161 5.66572C4.62807 5.6693 4.06766 5.67105 3.6389 5.62422C3.2202 5.5785 2.99084 5.49172 2.82289 5.36175L2.21087 6.15258C2.58452 6.44175 3.02186 6.56278 3.53034 6.61831C4.02877 6.67274 4.65604 6.66919 5.43607 6.66571L5.43161 5.66572ZM19.6569 22.4218L19.6657 20.4361L18.6657 20.4316L18.6569 22.4174L19.6569 22.4218ZM15.4835 16.2539L13.4978 16.2627L13.5022 17.2627L15.488 17.2539L15.4835 16.2539ZM19.6657 20.4361C19.6692 19.6561 19.6728 19.0288 19.6183 18.5304C19.5628 18.0219 19.4418 17.5846 19.1526 17.2109L18.3618 17.8229C18.4917 17.9909 18.5785 18.2202 18.6242 18.6389C18.6711 19.0677 18.6693 19.6281 18.6657 20.4316L19.6657 20.4361ZM15.488 17.2539C16.2915 17.2503 16.8519 17.2485 17.2807 17.2954C17.6994 17.3411 17.9287 17.4279 18.0967 17.5578L18.7087 16.767C18.335 16.4778 17.8977 16.3568 17.3892 16.3013C16.8908 16.2468 16.2635 16.2504 15.4835 16.2539L15.488 17.2539ZM1.76697 5.70868C1.83167 5.79229 1.90158 5.8716 1.97625 5.94614L2.68278 5.23846C2.6382 5.19395 2.59645 5.14659 2.5578 5.09666L1.76697 5.70868ZM1.97625 5.94614C2.04997 6.01974 2.12832 6.0887 2.21087 6.15258L2.82289 5.36175C2.77359 5.32359 2.7268 5.28241 2.68278 5.23846L1.97625 5.94614ZM2.54041 4.65301L1.96952 5.24532L2.68952 5.93929L3.26041 5.34699L2.54041 4.65301ZM19.1526 17.2109C19.0965 17.1384 19.0365 17.0692 18.9728 17.0034L18.2544 17.699C18.2924 17.7383 18.3282 17.7796 18.3618 17.8229L19.1526 17.2109ZM18.9728 17.0034C18.8906 16.9185 18.8024 16.8395 18.7087 16.767L18.0967 17.5578C18.1526 17.6011 18.2053 17.6483 18.2544 17.699L18.9728 17.0034ZM18.4915 18.3105L19.0055 17.6617L18.2217 17.0407L17.7077 17.6895L18.4915 18.3105Z" fill="white"/>
</svg>
