<svg width="340" height="177" viewBox="0 0 340 177" fill="none" xmlns="http://www.w3.org/2000/svg">
<path d="M229 92C264.5 92 301.75 52.6537 283.5 33.2261C268.941 17.7275 245.25 33.2261 255.25 54.7261C265.25 76.2261 311.874 97.7153 333 54.7249C347.582 25.0509 337.5 -5.71472 310.5 2.28616C283.5 10.287 300.821 90.0693 300.5 104.287C299 170.787 232.5 164.787 205.5 156.787" stroke="white" stroke-width="0.5"/>
<path d="M230 92L2.86775e-06 92" stroke="white" stroke-width="0.5"/>
<path d="M200.085 152.736L204.31 146.705C204.346 146.653 204.362 146.602 204.356 146.556C204.35 146.511 204.322 146.472 204.274 146.445C204.227 146.418 204.162 146.403 204.087 146.401C204.011 146.4 203.927 146.412 203.843 146.437L174.244 155.094L200.085 152.736ZM195.294 159.574L173.625 156.498L190.232 165.865C190.28 165.892 190.345 165.907 190.42 165.908C190.496 165.909 190.58 165.896 190.663 165.872C190.747 165.847 190.827 165.811 190.896 165.767C190.966 165.723 191.021 165.673 191.058 165.621L195.294 159.574Z" fill="#696969"/>
<path d="M200.246 153.284L204.494 155.99L204.079 156.581L196.237 159.051L173.077 155.762L200.246 153.284Z" fill="#696969"/>
</svg>
