<svg width="608" height="105" viewBox="0 0 608 105" fill="none" xmlns="http://www.w3.org/2000/svg">
<path d="M261.25 103.689C296.75 103.689 333.75 63.867 315.5 44.4395C300.941 28.9409 277.25 44.4395 287.25 65.9395C297.25 87.4395 365.874 102.68 387 59.6895C401.582 30.0155 373.139 5.20671 367.75 2.43951C362.361 -0.327699 352.089 0.630859 346.361 7.63107C332.861 24.1308 329.361 72.6304 399.861 74.6304" stroke="white" stroke-width="0.5"/>
<path d="M261.5 103.69L-4.51327e-06 103.69" stroke="white" stroke-width="0.5"/>
<path d="M405.574 71.3298L401.348 65.2989C401.312 65.247 401.296 65.1957 401.302 65.1501C401.308 65.1044 401.336 65.0661 401.384 65.0388C401.431 65.0116 401.496 64.9965 401.572 64.9951C401.647 64.9936 401.731 65.0058 401.815 65.0305L431.414 73.6873L405.574 71.3298ZM410.365 78.168L432.033 75.092L415.426 84.4592C415.379 84.4858 415.314 84.5004 415.238 84.5015C415.162 84.5026 415.078 84.4902 414.995 84.4655C414.911 84.4408 414.831 84.4046 414.762 84.3606C414.693 84.3166 414.637 84.2663 414.6 84.2146L410.365 78.168Z" fill="#696969"/>
<path d="M405.412 71.8777L401.164 74.5838L401.58 75.175L409.421 77.6443L432.581 74.3559L405.412 71.8777Z" fill="#696969"/>
</svg>
