<svg width="20" height="20" viewBox="0 0 20 20" fill="none" xmlns="http://www.w3.org/2000/svg">
<path d="M5.21783 18.9384L5.13961 19.4323H5.13961L5.21783 18.9384ZM1.06156 14.7822L1.5554 14.704L1.06156 14.7822ZM18.9384 14.7822L19.4323 14.8604V14.8604L18.9384 14.7822ZM14.7822 18.9384L14.8604 19.4323H14.8604L14.7822 18.9384ZM18.4001 8.69971C18.2343 8.47891 17.9209 8.43437 17.7001 8.60021C17.4793 8.76606 17.4347 9.07949 17.6006 9.30029L18.4001 8.69971ZM2.39942 9.30029C2.56526 9.07949 2.52072 8.76606 2.29992 8.60021C2.07913 8.43437 1.7657 8.47891 1.59985 8.69971L2.39942 9.30029ZM9.5 15C9.5 15.2761 9.72386 15.5 10 15.5C10.2761 15.5 10.5 15.2761 10.5 15H9.5ZM5.60821 4.68935C5.43665 4.90573 5.47298 5.22022 5.68935 5.39179C5.90573 5.56335 6.22022 5.52703 6.39179 5.31065L5.60821 4.68935ZM7.39785 3.23703L7.00606 2.92638L7.39785 3.23703ZM12.6022 3.23703L12.9939 2.92638L12.6022 3.23703ZM13.6082 5.31065C13.7798 5.52703 14.0943 5.56336 14.3106 5.39179C14.527 5.22022 14.5634 4.90573 14.3918 4.68935L13.6082 5.31065ZM9.74934 1.01989L9.67066 0.526117L9.67066 0.526118L9.74934 1.01989ZM10.2507 1.01989L10.3293 0.526118L10.3293 0.526117L10.2507 1.01989ZM18.5 12V13H19.5V12H18.5ZM13 18.5H7V19.5H13V18.5ZM1.5 13V12H0.5V13H1.5ZM7 18.5C6.05189 18.5 5.63604 18.4984 5.29604 18.4446L5.13961 19.4323C5.57694 19.5016 6.0901 19.5 7 19.5V18.5ZM0.5 13C0.5 13.9099 0.498448 14.4231 0.567714 14.8604L1.5554 14.704C1.50155 14.364 1.5 13.9481 1.5 13H0.5ZM5.29604 18.4446C3.37053 18.1396 1.86037 16.6295 1.5554 14.704L0.567714 14.8604C0.940458 17.2138 2.7862 19.0595 5.13961 19.4323L5.29604 18.4446ZM18.5 13C18.5 13.9481 18.4984 14.364 18.4446 14.704L19.4323 14.8604C19.5016 14.4231 19.5 13.9099 19.5 13H18.5ZM13 19.5C13.9099 19.5 14.4231 19.5016 14.8604 19.4323L14.704 18.4446C14.364 18.4984 13.9481 18.5 13 18.5V19.5ZM18.4446 14.704C18.1396 16.6295 16.6295 18.1396 14.704 18.4446L14.8604 19.4323C17.2138 19.0595 19.0595 17.2138 19.4323 14.8604L18.4446 14.704ZM19.5 12C19.5 10.7624 19.0906 9.61898 18.4001 8.69971L17.6006 9.30029C18.1655 10.0523 18.5 10.9864 18.5 12H19.5ZM1.5 12C1.5 10.9864 1.83453 10.0523 2.39942 9.30029L1.59985 8.69971C0.909358 9.61898 0.5 10.7624 0.5 12H1.5ZM10.5 15V2H9.5V15H10.5ZM6.39179 5.31065L7.78964 3.54768L7.00606 2.92638L5.60821 4.68935L6.39179 5.31065ZM12.2104 3.54768L13.6082 5.31065L14.3918 4.68935L12.9939 2.92638L12.2104 3.54768ZM7.78964 3.54768C8.3546 2.83514 8.75227 2.33484 9.0911 1.9947C9.42771 1.65679 9.64399 1.54298 9.82801 1.51366L9.67066 0.526118C9.17533 0.605039 8.77324 0.896834 8.38263 1.28895C7.99425 1.67884 7.55585 2.23299 7.00606 2.92638L7.78964 3.54768ZM12.9939 2.92638C12.4442 2.23299 12.0058 1.67884 11.6174 1.28895C11.2268 0.896835 10.8247 0.605039 10.3293 0.526118L10.172 1.51366C10.356 1.54298 10.5723 1.65679 10.9089 1.9947C11.2477 2.33484 11.6454 2.83514 12.2104 3.54768L12.9939 2.92638ZM9.82801 1.51366C9.88531 1.50453 9.94272 1.5 10 1.5V0.5C9.88984 0.5 9.77981 0.508727 9.67066 0.526117L9.82801 1.51366ZM10 1.5C10.0573 1.5 10.1147 1.50453 10.172 1.51366L10.3293 0.526117C10.2202 0.508727 10.1102 0.5 10 0.5V1.5ZM10.5 2V1H9.5V2H10.5Z" fill="white"/>
</svg>
