<svg width="24" height="24" viewBox="0 0 24 24" fill="none" xmlns="http://www.w3.org/2000/svg">
<path d="M7.21783 20.9384L7.13961 21.4323H7.13961L7.21783 20.9384ZM3.06156 16.7822L3.5554 16.704L3.06156 16.7822ZM20.9384 16.7822L21.4323 16.8604V16.8604L20.9384 16.7822ZM16.7822 20.9384L16.8604 21.4323H16.8604L16.7822 20.9384ZM20.4001 10.6997C20.2343 10.4789 19.9209 10.4344 19.7001 10.6002C19.4793 10.7661 19.4347 11.0795 19.6006 11.3003L20.4001 10.6997ZM4.39942 11.3003C4.56526 11.0795 4.52072 10.7661 4.29992 10.6002C4.07913 10.4344 3.7657 10.4789 3.59985 10.6997L4.39942 11.3003ZM11.5 17C11.5 17.2761 11.7239 17.5 12 17.5C12.2761 17.5 12.5 17.2761 12.5 17H11.5ZM7.60821 6.68935C7.43665 6.90573 7.47298 7.22022 7.68935 7.39179C7.90573 7.56335 8.22022 7.52703 8.39179 7.31065L7.60821 6.68935ZM9.39785 5.23703L9.00606 4.92638L9.39785 5.23703ZM14.6022 5.23703L14.9939 4.92638L14.6022 5.23703ZM15.6082 7.31065C15.7798 7.52703 16.0943 7.56336 16.3106 7.39179C16.527 7.22022 16.5634 6.90573 16.3918 6.68935L15.6082 7.31065ZM11.7493 3.01989L11.6707 2.52612L11.6707 2.52612L11.7493 3.01989ZM12.2507 3.01989L12.3293 2.52612L12.3293 2.52612L12.2507 3.01989ZM20.5 14V15H21.5V14H20.5ZM15 20.5H9V21.5H15V20.5ZM3.5 15V14H2.5V15H3.5ZM9 20.5C8.05189 20.5 7.63604 20.4984 7.29604 20.4446L7.13961 21.4323C7.57694 21.5016 8.0901 21.5 9 21.5V20.5ZM2.5 15C2.5 15.9099 2.49845 16.4231 2.56771 16.8604L3.5554 16.704C3.50155 16.364 3.5 15.9481 3.5 15H2.5ZM7.29604 20.4446C5.37053 20.1396 3.86037 18.6295 3.5554 16.704L2.56771 16.8604C2.94046 19.2138 4.7862 21.0595 7.13961 21.4323L7.29604 20.4446ZM20.5 15C20.5 15.9481 20.4984 16.364 20.4446 16.704L21.4323 16.8604C21.5016 16.4231 21.5 15.9099 21.5 15H20.5ZM15 21.5C15.9099 21.5 16.4231 21.5016 16.8604 21.4323L16.704 20.4446C16.364 20.4984 15.9481 20.5 15 20.5V21.5ZM20.4446 16.704C20.1396 18.6295 18.6295 20.1396 16.704 20.4446L16.8604 21.4323C19.2138 21.0595 21.0595 19.2138 21.4323 16.8604L20.4446 16.704ZM21.5 14C21.5 12.7624 21.0906 11.619 20.4001 10.6997L19.6006 11.3003C20.1655 12.0523 20.5 12.9864 20.5 14H21.5ZM3.5 14C3.5 12.9864 3.83453 12.0523 4.39942 11.3003L3.59985 10.6997C2.90936 11.619 2.5 12.7624 2.5 14H3.5ZM12.5 17V4H11.5V17H12.5ZM8.39179 7.31065L9.78964 5.54768L9.00606 4.92638L7.60821 6.68935L8.39179 7.31065ZM14.2104 5.54768L15.6082 7.31065L16.3918 6.68935L14.9939 4.92638L14.2104 5.54768ZM9.78964 5.54768C10.3546 4.83514 10.7523 4.33484 11.0911 3.9947C11.4277 3.65679 11.644 3.54298 11.828 3.51366L11.6707 2.52612C11.1753 2.60504 10.7732 2.89683 10.3826 3.28895C9.99425 3.67884 9.55585 4.23299 9.00606 4.92638L9.78964 5.54768ZM14.9939 4.92638C14.4442 4.23299 14.0058 3.67884 13.6174 3.28895C13.2268 2.89683 12.8247 2.60504 12.3293 2.52612L12.172 3.51366C12.356 3.54298 12.5723 3.65679 12.9089 3.9947C13.2477 4.33484 13.6454 4.83514 14.2104 5.54768L14.9939 4.92638ZM11.828 3.51366C11.8853 3.50453 11.9427 3.5 12 3.5V2.5C11.8898 2.5 11.7798 2.50873 11.6707 2.52612L11.828 3.51366ZM12 3.5C12.0573 3.5 12.1147 3.50453 12.172 3.51366L12.3293 2.52612C12.2202 2.50873 12.1102 2.5 12 2.5V3.5ZM12.5 4V3H11.5V4H12.5Z" fill="white"/>
</svg>
