<svg width="20" height="20" viewBox="0 0 20 20" fill="none" xmlns="http://www.w3.org/2000/svg">
<path d="M3.65585 17.7197L3.87356 17.3644L3.65585 17.7197ZM2.28026 16.3441L2.63553 16.1264L2.28026 16.3441ZM17.7189 16.3441L17.3637 16.1264L17.7189 16.3441ZM16.3433 17.7197L16.1256 17.3644L16.3433 17.7197ZM16.3433 4.78099L16.1256 5.13626L16.3433 4.78099ZM17.7189 6.15658L17.3637 6.37429L17.7189 6.15658ZM3.65585 4.78099L3.87356 5.13626L3.65585 4.78099ZM2.28026 6.15658L2.63553 6.37429L2.28026 6.15658ZM15.3969 2.12237L15.6976 1.83394V1.83394L15.3969 2.12237ZM3.20311 2.40932L3.45469 2.74146L3.20311 2.40932ZM2.3783 3.26922L2.72014 3.50745L2.3783 3.26922ZM15.8329 4.27559H16.2496L16.2496 4.27354L15.8329 4.27559ZM15.3026 11.1367C15.5327 11.1367 15.7193 10.9502 15.7193 10.72C15.7193 10.4899 15.5327 10.3034 15.3026 10.3034V11.1367ZM13.0299 10.3034C12.7998 10.3034 12.6132 10.4899 12.6132 10.72C12.6132 10.9502 12.7998 11.1367 13.0299 11.1367V10.3034ZM8.7496 4.58366H11.2496V3.75033H8.7496V4.58366ZM11.2496 17.917H8.7496V18.7503H11.2496V17.917ZM8.7496 17.917C7.3776 17.917 6.37786 17.9166 5.59495 17.8421C4.81824 17.7683 4.29807 17.6245 3.87356 17.3644L3.43814 18.0749C4.01559 18.4288 4.67836 18.5921 5.51607 18.6717C6.34758 18.7508 7.39373 18.7503 8.7496 18.7503V17.917ZM1.2496 11.2503C1.2496 12.6062 1.24916 13.6523 1.32822 14.4839C1.40787 15.3216 1.57113 15.9843 1.925 16.5618L2.63553 16.1264C2.37539 15.7019 2.23166 15.1817 2.15781 14.405C2.08337 13.6221 2.08293 12.6223 2.08293 11.2503H1.2496ZM3.87356 17.3644C3.36898 17.0552 2.94474 16.6309 2.63553 16.1264L1.925 16.5618C2.30292 17.1785 2.82143 17.697 3.43814 18.0749L3.87356 17.3644ZM11.2496 18.7503C12.6055 18.7503 13.6516 18.7508 14.4831 18.6717C15.3208 18.5921 15.9836 18.4288 16.561 18.0749L16.1256 17.3644C15.7011 17.6245 15.181 17.7683 14.4042 17.8421C13.6213 17.9166 12.6216 17.917 11.2496 17.917V18.7503ZM17.3637 16.1264C17.0545 16.6309 16.6302 17.0552 16.1256 17.3644L16.561 18.0749C17.1778 17.697 17.6963 17.1785 18.0742 16.5618L17.3637 16.1264ZM16.1256 5.13626C16.6302 5.44547 17.0545 5.86971 17.3637 6.37429L18.0742 5.93887C17.6963 5.32216 17.1778 4.80365 16.561 4.42572L16.1256 5.13626ZM8.7496 3.75033C7.39373 3.75033 6.34758 3.74989 5.51607 3.82895C4.67836 3.9086 4.01559 4.07186 3.43814 4.42572L3.87356 5.13626C4.29807 4.87612 4.81824 4.73239 5.59495 4.65854C6.37786 4.5841 7.3776 4.58366 8.7496 4.58366V3.75033ZM2.08293 11.2503C2.08293 9.87833 2.08337 8.87859 2.15781 8.09568C2.23166 7.31897 2.37539 6.7988 2.63553 6.37429L1.925 5.93887C1.57113 6.51632 1.40787 7.17909 1.32822 8.0168C1.24916 8.84831 1.2496 9.89446 1.2496 11.2503H2.08293ZM3.43814 4.42572C2.82143 4.80365 2.30292 5.32216 1.925 5.93887L2.63553 6.37429C2.94474 5.86971 3.36898 5.44547 3.87356 5.13626L3.43814 4.42572ZM8.37716 2.08366H12.8511V1.25033H8.37716V2.08366ZM12.8511 2.08366C13.5664 2.08366 14.0591 2.08462 14.4296 2.13655C14.7863 2.18654 14.9673 2.27644 15.0962 2.4108L15.6976 1.83394C15.3897 1.51292 15.0009 1.37513 14.5453 1.31128C14.1036 1.24937 13.5418 1.25033 12.8511 1.25033V2.08366ZM8.37716 1.25033C6.98882 1.25033 5.91269 1.2497 5.06238 1.34575C4.2032 1.44279 3.52505 1.64277 2.95153 2.07718L3.45469 2.74146C3.86121 2.43354 4.37208 2.26235 5.15591 2.17382C5.94861 2.08428 6.96948 2.08366 8.37716 2.08366V1.25033ZM2.08293 8.66335C2.08293 7.19697 2.08346 6.1293 2.1697 5.29939C2.25524 4.47631 2.42132 3.93623 2.72014 3.50745L2.03646 3.03098C1.62324 3.62392 1.4333 4.32344 1.34083 5.21326C1.24907 6.09625 1.2496 7.21479 1.2496 8.66335H2.08293ZM2.95153 2.07718C2.59974 2.34364 2.29106 2.66564 2.03646 3.03098L2.72014 3.50745C2.92545 3.21284 3.17346 2.95448 3.45469 2.74146L2.95153 2.07718ZM16.2496 4.27354C16.2468 3.70789 16.2344 3.23605 16.1673 2.85066C16.0982 2.45467 15.9657 2.11341 15.6976 1.83394L15.0962 2.4108C15.2121 2.53158 15.2947 2.69778 15.3463 2.99376C15.3997 3.30035 15.4134 3.70499 15.4163 4.27765L16.2496 4.27354ZM1.2496 8.66335C1.2496 9.48374 1.23281 10.2183 1.24973 10.8449L2.08276 10.8224C2.06621 10.2094 2.08293 9.51303 2.08293 8.66335H1.2496ZM17.9162 12.5761H13.0299V13.4094H17.9162V12.5761ZM10.3405 10.72C10.3405 12.2053 11.5446 13.4094 13.0299 13.4094V12.5761C12.0048 12.5761 11.1738 11.7451 11.1738 10.72H10.3405ZM11.1738 10.72C11.1738 9.69496 12.0048 8.86397 13.0299 8.86397V8.03064C11.5446 8.03064 10.3405 9.23472 10.3405 10.72H11.1738ZM15.3026 10.3034H13.0299V11.1367H15.3026V10.3034ZM11.2496 4.58366C12.4011 4.58366 13.292 4.58384 14.0153 4.62847C14.7383 4.67308 15.2623 4.76081 15.685 4.92136L15.9809 4.14231C15.4429 3.93802 14.8219 3.84333 14.0667 3.79672C13.3119 3.75015 12.3915 3.75033 11.2496 3.75033V4.58366ZM15.685 4.92136C15.844 4.98175 15.9893 5.05272 16.1256 5.13626L16.561 4.42572C16.3782 4.31365 16.1859 4.22017 15.9809 4.14231L15.685 4.92136ZM15.4163 4.27559V4.53183H16.2496V4.27559H15.4163ZM13.0299 8.86397H18.2866V8.03064H13.0299V8.86397ZM18.7496 11.2503C18.7496 10.1025 18.7498 9.17844 18.7025 8.42132L17.8707 8.4733C17.9161 9.19857 17.9163 10.0928 17.9163 11.2503H18.7496ZM18.7025 8.42132C18.6378 7.38656 18.4824 6.60498 18.0742 5.93887L17.3637 6.37429C17.6646 6.86532 17.8088 7.48229 17.8707 8.4733L18.7025 8.42132ZM17.9163 11.2503C17.9163 11.9061 17.9163 12.4785 17.9078 12.9858L18.741 12.9997C18.7496 12.484 18.7496 11.9041 18.7496 11.2503H17.9163ZM17.9078 12.9858C17.8808 14.6137 17.7635 15.4739 17.3637 16.1264L18.0742 16.5618C18.6076 15.6913 18.7143 14.6105 18.741 12.9997L17.9078 12.9858ZM17.9162 13.4094H18.3244V12.5761H17.9162V13.4094Z" fill="white"/>
</svg>
