<svg width="18" height="18" viewBox="0 0 18 18" fill="none" xmlns="http://www.w3.org/2000/svg">
<path d="M2.65597 16.7197L2.87368 16.3644L2.65597 16.7197ZM1.28038 15.3441L1.63565 15.1264L1.28038 15.3441ZM16.7191 15.3441L16.3638 15.1264L16.7191 15.3441ZM15.3435 16.7197L15.1258 16.3644L15.3435 16.7197ZM15.3435 3.78099L15.1258 4.13626L15.3435 3.78099ZM16.7191 5.15658L16.3638 5.37429L16.7191 5.15658ZM2.65597 3.78099L2.87368 4.13626L2.65597 3.78099ZM1.28038 5.15658L1.63565 5.37429L1.28038 5.15658ZM14.397 1.12237L14.6977 0.833937V0.833937L14.397 1.12237ZM2.20323 1.40932L2.45482 1.74146L2.20323 1.40932ZM1.37842 2.26922L1.72027 2.50745L1.37842 2.26922ZM14.8331 3.27559H15.2497L15.2497 3.27354L14.8331 3.27559ZM14.3027 10.1367C14.5329 10.1367 14.7194 9.95015 14.7194 9.72003C14.7194 9.48991 14.5329 9.30337 14.3027 9.30337V10.1367ZM12.03 9.30337C11.7999 9.30337 11.6134 9.48991 11.6134 9.72003C11.6134 9.95015 11.7999 10.1367 12.03 10.1367V9.30337ZM7.74972 3.58366H10.2497V2.75033H7.74972V3.58366ZM10.2497 16.917H7.74972V17.7503H10.2497V16.917ZM7.74972 16.917C6.37772 16.917 5.37798 16.9166 4.59507 16.8421C3.81836 16.7683 3.29819 16.6245 2.87368 16.3644L2.43827 17.0749C3.01572 17.4288 3.67849 17.5921 4.51619 17.6717C5.3477 17.7508 6.39386 17.7503 7.74972 17.7503V16.917ZM0.249718 10.2503C0.249718 11.6062 0.249279 12.6523 0.328339 13.4839C0.407989 14.3216 0.571257 14.9843 0.925118 15.5618L1.63565 15.1264C1.37551 14.7019 1.23178 14.1817 1.15793 13.405C1.08349 12.6221 1.08305 11.6223 1.08305 10.2503H0.249718ZM2.87368 16.3644C2.3691 16.0552 1.94486 15.6309 1.63565 15.1264L0.925118 15.5618C1.30304 16.1785 1.82155 16.697 2.43827 17.0749L2.87368 16.3644ZM10.2497 17.7503C11.6056 17.7503 12.6517 17.7508 13.4832 17.6717C14.321 17.5921 14.9837 17.4288 15.5612 17.0749L15.1258 16.3644C14.7012 16.6245 14.1811 16.7683 13.4044 16.8421C12.6215 16.9166 11.6217 16.917 10.2497 16.917V17.7503ZM16.3638 15.1264C16.0546 15.6309 15.6303 16.0552 15.1258 16.3644L15.5612 17.0749C16.1779 16.697 16.6964 16.1785 17.0743 15.5618L16.3638 15.1264ZM15.1258 4.13626C15.6303 4.44547 16.0546 4.86971 16.3638 5.37429L17.0743 4.93887C16.6964 4.32216 16.1779 3.80365 15.5612 3.42572L15.1258 4.13626ZM7.74972 2.75033C6.39386 2.75033 5.3477 2.74989 4.51619 2.82895C3.67849 2.9086 3.01572 3.07186 2.43827 3.42572L2.87368 4.13626C3.29819 3.87612 3.81836 3.73239 4.59507 3.65854C5.37798 3.5841 6.37772 3.58366 7.74972 3.58366V2.75033ZM1.08305 10.2503C1.08305 8.87833 1.08349 7.87859 1.15793 7.09568C1.23178 6.31897 1.37551 5.7988 1.63565 5.37429L0.925118 4.93887C0.571257 5.51632 0.407989 6.17909 0.328339 7.0168C0.249279 7.84831 0.249718 8.89446 0.249718 10.2503H1.08305ZM2.43827 3.42572C1.82155 3.80365 1.30304 4.32216 0.925118 4.93887L1.63565 5.37429C1.94486 4.86971 2.3691 4.44547 2.87368 4.13626L2.43827 3.42572ZM7.37728 1.08366H11.8512V0.250326H7.37728V1.08366ZM11.8512 1.08366C12.5665 1.08366 13.0593 1.08462 13.4297 1.13655C13.7864 1.18654 13.9675 1.27644 14.0963 1.4108L14.6977 0.833937C14.3898 0.512922 14.001 0.375135 13.5454 0.311281C13.1037 0.249365 12.542 0.250326 11.8512 0.250326V1.08366ZM7.37728 0.250326C5.98894 0.250326 4.91281 0.249705 4.0625 0.345749C3.20332 0.442795 2.52517 0.642769 1.95165 1.07718L2.45482 1.74146C2.86134 1.43354 3.3722 1.26235 4.15603 1.17382C4.94873 1.08428 5.96961 1.08366 7.37728 1.08366V0.250326ZM1.08305 7.66335C1.08305 6.19697 1.08358 5.1293 1.16982 4.29939C1.25536 3.47631 1.42144 2.93623 1.72027 2.50745L1.03658 2.03098C0.623363 2.62392 0.433427 3.32344 0.340955 4.21326C0.249192 5.09625 0.249718 6.21479 0.249718 7.66335H1.08305ZM1.95165 1.07718C1.59986 1.34364 1.29119 1.66564 1.03658 2.03098L1.72027 2.50745C1.92557 2.21284 2.17358 1.95448 2.45482 1.74146L1.95165 1.07718ZM15.2497 3.27354C15.2469 2.70789 15.2346 2.23605 15.1674 1.85066C15.0984 1.45467 14.9658 1.11341 14.6977 0.833937L14.0963 1.4108C14.2122 1.53158 14.2948 1.69778 14.3464 1.99376C14.3999 2.30035 14.4136 2.70499 14.4164 3.27765L15.2497 3.27354ZM0.249718 7.66335C0.249718 8.48374 0.232934 9.21826 0.249857 9.84491L1.08289 9.82241C1.06633 9.20937 1.08305 8.51303 1.08305 7.66335H0.249718ZM16.9164 11.5761H12.03V12.4094H16.9164V11.5761ZM9.34063 9.72003C9.34063 11.2053 10.5447 12.4094 12.03 12.4094V11.5761C11.0049 11.5761 10.174 10.7451 10.174 9.72003H9.34063ZM10.174 9.72003C10.174 8.69496 11.0049 7.86397 12.03 7.86397V7.03064C10.5447 7.03064 9.34063 8.23472 9.34063 9.72003H10.174ZM14.3027 9.30337H12.03V10.1367H14.3027V9.30337ZM10.2497 3.58366C11.4012 3.58366 12.2921 3.58384 13.0155 3.62847C13.7384 3.67308 14.2624 3.76081 14.6851 3.92136L14.981 3.14231C14.443 2.93802 13.8221 2.84333 13.0668 2.79672C12.312 2.75015 11.3916 2.75033 10.2497 2.75033V3.58366ZM14.6851 3.92136C14.8442 3.98175 14.9894 4.05272 15.1258 4.13626L15.5612 3.42572C15.3783 3.31365 15.186 3.22017 14.981 3.14231L14.6851 3.92136ZM14.4164 3.27559V3.53183H15.2497V3.27559H14.4164ZM12.03 7.86397H17.2867V7.03064H12.03V7.86397ZM17.7497 10.2503C17.7497 9.10251 17.7499 8.17844 17.7026 7.42132L16.8709 7.4733C16.9162 8.19857 16.9164 9.09279 16.9164 10.2503H17.7497ZM17.7026 7.42132C17.6379 6.38656 17.4825 5.60498 17.0743 4.93887L16.3638 5.37429C16.6647 5.86532 16.8089 6.48229 16.8709 7.4733L17.7026 7.42132ZM16.9164 10.2503C16.9164 10.9061 16.9164 11.4785 16.908 11.9858L17.7412 11.9997C17.7497 11.484 17.7497 10.9041 17.7497 10.2503H16.9164ZM16.908 11.9858C16.8809 13.6137 16.7636 14.4739 16.3638 15.1264L17.0743 15.5618C17.6077 14.6913 17.7144 13.6105 17.7412 11.9997L16.908 11.9858ZM16.9164 12.4094H17.3246V11.5761H16.9164V12.4094Z" fill="white"/>
</svg>
