<svg width="24" height="25" viewBox="0 0 24 25" fill="none" xmlns="http://www.w3.org/2000/svg">
<g clip-path="url(#clip0_422_12849)">
<path fill-rule="evenodd" clip-rule="evenodd" d="M19.54 0.166016C20.896 0.166016 22 1.27002 22 2.63802V24.166L19.42 21.886L17.968 20.542L16.432 19.114L17.068 21.334H3.46C2.104 21.334 1 20.23 1 18.862V2.63802C1 1.27002 2.104 0.166016 3.46 0.166016L19.54 0.166016ZM14.908 15.838C17.56 15.754 18.58 14.014 18.58 14.014C18.58 10.15 16.852 7.01802 16.852 7.01802C15.124 5.72202 13.48 5.75802 13.48 5.75802L13.312 5.95002C15.352 6.57402 16.3 7.47402 16.3 7.47402C15.052 6.79002 13.828 6.45402 12.688 6.32202C11.824 6.22602 10.996 6.25002 10.264 6.34602L10.06 6.37002C9.64 6.40602 8.62 6.56202 7.336 7.12602C6.892 7.33002 6.628 7.47402 6.628 7.47402C6.628 7.47402 7.624 6.52602 9.784 5.90202L9.664 5.75802C9.664 5.75802 8.02 5.72202 6.292 7.01802C6.292 7.01802 4.564 10.15 4.564 14.014C4.564 14.014 5.572 15.754 8.224 15.838C8.224 15.838 8.668 15.298 9.028 14.842C7.504 14.386 6.928 13.426 6.928 13.426L7.264 13.63L7.312 13.666L7.359 13.693L7.373 13.699L7.42 13.726C7.72 13.894 8.02 14.026 8.296 14.134C8.788 14.326 9.376 14.518 10.06 14.65C10.96 14.818 12.016 14.878 13.168 14.662C13.732 14.566 14.308 14.398 14.908 14.146C15.328 13.99 15.796 13.762 16.288 13.438C16.288 13.438 15.688 14.422 14.116 14.866C14.476 15.322 14.908 15.838 14.908 15.838ZM9.328 10.234C8.644 10.234 8.104 10.834 8.104 11.566C8.104 12.298 8.656 12.898 9.328 12.898C10.012 12.898 10.552 12.298 10.552 11.566C10.564 10.834 10.012 10.234 9.328 10.234ZM13.708 10.234C13.024 10.234 12.484 10.834 12.484 11.566C12.484 12.298 13.036 12.898 13.708 12.898C14.392 12.898 14.932 12.298 14.932 11.566C14.932 10.834 14.392 10.234 13.708 10.234Z" fill="white"/>
</g>
<defs>
<clipPath id="clip0_422_12849">
<rect width="24" height="24" fill="white" transform="translate(0 0.166016)"/>
</clipPath>
</defs>
</svg>
