<svg width="24" height="25" viewBox="0 0 24 25" fill="none" xmlns="http://www.w3.org/2000/svg">
<path fill-rule="evenodd" clip-rule="evenodd" d="M24 11.9664C24 10.3664 22.7 9.06641 21.1 9.06641C20.4 9.06641 19.8 9.26641 19.3 9.66641C17.5 8.56641 15.3 7.86641 12.9 7.76641L14.1 3.86641L17.5 4.66641C17.6 5.86641 18.6 6.86641 19.9 6.86641C21.2 6.86641 22.3 5.76641 22.3 4.46641C22.3 3.16641 21.2 2.06641 19.9 2.06641C19 2.06641 18.2 2.56641 17.8 3.36641L13.8 2.46641C13.5 2.36641 13.1 2.56641 13 2.86641L11.5 7.76641C9 7.86641 6.5 8.46641 4.7 9.66641C4.2 9.26641 3.6 9.06641 2.9 9.06641C1.3 9.06641 0 10.3664 0 11.9664C0 12.9664 0.5 13.8664 1.2 14.3664C1.2 14.5664 1.2 14.8664 1.2 15.0664C1.2 17.0664 2.4 18.8664 4.5 20.2664C6.5 21.5664 9.2 22.2664 12 22.2664C14.8 22.2664 17.5 21.5664 19.5 20.2664C21.6 18.8664 22.8 17.0664 22.8 15.0664C22.8 14.8664 22.8 14.6664 22.8 14.4664C23.5 13.8664 24 12.9664 24 11.9664ZM20 3.36641C20.6 3.36641 21.1 3.86641 21.1 4.46641C21.1 5.06641 20.6 5.56641 20 5.56641C19.4 5.56641 18.9 5.06641 18.9 4.46641C18.9 3.86641 19.4 3.36641 20 3.36641ZM6.8 13.7664C6.8 12.8664 7.6 12.1664 8.4 12.1664C9.3 12.1664 10 12.9664 10 13.7664C10 14.5664 9.3 15.3664 8.4 15.3664C7.6 15.3664 6.8 14.6664 6.8 13.7664ZM16 18.4664C15.2 19.2664 13.9 19.6664 12.1 19.6664C10.3 19.6664 9 19.2664 8.2 18.4664C7.9 18.1664 7.9 17.7664 8.2 17.5664C8.5 17.2664 8.9 17.2664 9.1 17.5664C9.7 18.1664 10.7 18.4664 12.1 18.4664C13.5 18.4664 14.5 18.1664 15.1 17.5664C15.4 17.2664 15.8 17.2664 16 17.5664C16.2 17.8664 16.2 18.2664 16 18.4664ZM15.6 15.3664C14.7 15.3664 13.9 14.6664 13.9 13.7664C13.9 12.8664 14.7 12.1664 15.6 12.1664C16.5 12.1664 17.2 12.9664 17.2 13.7664C17.2 14.5664 16.5 15.3664 15.6 15.3664Z" fill="white"/>
</svg>
