<svg width="24" height="25" viewBox="0 0 24 25" fill="none" xmlns="http://www.w3.org/2000/svg">
<g clip-path="url(#clip0_422_12847)">
<path fill-rule="evenodd" clip-rule="evenodd" d="M23.9532 2.69459C23.9338 2.60597 23.8913 2.52406 23.83 2.45715C23.7687 2.39025 23.6908 2.34072 23.6042 2.31359C23.2889 2.25114 22.9626 2.27427 22.6592 2.38059C22.6592 2.38059 1.63021 9.93959 0.429212 10.7766C0.171212 10.9566 0.0842119 11.0616 0.0412119 11.1846C-0.166788 11.7846 0.480212 12.0426 0.480212 12.0426L5.90021 13.8086C5.99185 13.825 6.08609 13.8195 6.17521 13.7926C7.40721 13.0136 18.5752 5.95859 19.2242 5.72159C19.3242 5.69159 19.4012 5.72159 19.3812 5.79659C19.1232 6.70159 9.47221 15.2746 9.41921 15.3266C9.39339 15.3477 9.37328 15.375 9.3607 15.4059C9.34813 15.4368 9.34349 15.4704 9.34721 15.5036L8.84121 20.7956C8.84121 20.7956 8.62921 22.4426 10.2762 20.7956C11.4442 19.6266 12.5652 18.6586 13.1252 18.1876C14.9892 19.4746 16.9942 20.8976 17.8592 21.6426C18.0047 21.7834 18.1771 21.8935 18.3661 21.9662C18.5551 22.0388 18.7569 22.0727 18.9592 22.0656C19.2084 22.0352 19.4425 21.9297 19.6302 21.763C19.818 21.5963 19.9505 21.3764 20.0102 21.1326C20.0102 21.1326 23.8402 5.70959 23.9682 3.64359C23.9812 3.44359 23.9982 3.31159 24.0002 3.17259C24.0065 3.01186 23.9906 2.85103 23.9532 2.69459Z" fill="white"/>
</g>
<defs>
<clipPath id="clip0_422_12847">
<rect width="24" height="24" fill="white" transform="translate(0 0.166016)"/>
</clipPath>
</defs>
</svg>
