<svg width="24" height="25" viewBox="0 0 24 25" fill="none" xmlns="http://www.w3.org/2000/svg">
<path fill-rule="evenodd" clip-rule="evenodd" d="M24 4.7668C23.1 5.1668 22.2 5.4668 21.2 5.5668C22.2 4.9668 23 3.9668 23.4 2.8668C22.4 3.4668 21.4 3.8668 20.3 4.0668C19.4 3.0668 18.1 2.4668 16.7 2.4668C14 2.4668 11.8 4.6668 11.8 7.3668C11.8 7.7668 11.8 8.1668 11.9 8.4668C7.7 8.2668 4.1 6.2668 1.7 3.2668C1.2 4.0668 1 4.8668 1 5.7668C1 7.4668 1.9 8.9668 3.2 9.8668C2.4 9.8668 1.6 9.6668 1 9.2668C1 9.2668 1 9.2668 1 9.3668C1 11.7668 2.7 13.7668 4.9 14.1668C4.5 14.2668 4.1 14.3668 3.6 14.3668C3.3 14.3668 3 14.3668 2.7 14.2668C3.3 16.2668 5.1 17.6668 7.3 17.6668C5.6 18.9668 3.5 19.7668 1.2 19.7668C0.8 19.7668 0.4 19.7668 0 19.6668C2.2 21.0668 4.8 21.8668 7.5 21.8668C16.6 21.8668 21.5 14.3668 21.5 7.8668C21.5 7.6668 21.5 7.4668 21.5 7.2668C22.5 6.5668 23.3 5.6668 24 4.7668Z" fill="white"/>
</svg>
