<svg width="24" height="25" viewBox="0 0 24 25" fill="none" xmlns="http://www.w3.org/2000/svg">
<path fill-rule="evenodd" clip-rule="evenodd" d="M23.8 7.36758C23.8 7.36758 23.6 5.66758 22.8 4.96758C21.9 3.96758 20.9 3.96758 20.4 3.96758C17 3.76758 12 3.76758 12 3.76758C12 3.76758 7 3.76758 3.6 3.96758C3.1 4.06758 2.1 4.06758 1.2 4.96758C0.5 5.66758 0.2 7.36758 0.2 7.36758C0.2 7.36758 0 9.26758 0 11.2676V13.0676C0 14.9676 0.2 16.9676 0.2 16.9676C0.2 16.9676 0.4 18.6676 1.2 19.3676C2.1 20.3676 3.3 20.2676 3.8 20.3676C5.7 20.5676 12 20.5676 12 20.5676C12 20.5676 17 20.5676 20.4 20.2676C20.9 20.1676 21.9 20.1676 22.8 19.2676C23.5 18.5676 23.8 16.8676 23.8 16.8676C23.8 16.8676 24 14.9676 24 12.9676V11.1676C24 9.26758 23.8 7.36758 23.8 7.36758ZM9.5 15.2676V8.56758L16 11.9676L9.5 15.2676Z" fill="white"/>
</svg>
