<svg width="22" height="21" viewBox="0 0 22 21" fill="none" xmlns="http://www.w3.org/2000/svg">
<path d="M8.35181 7.30519L8.76497 7.58679L8.35181 7.30519ZM12.4211 7.77915L12.6831 7.35333L12.4211 7.77915ZM9.64955 6.50652L9.59388 6.00963L9.64955 6.50652ZM9.64955 14.4935L9.59388 14.9904L9.64955 14.4935ZM8.35181 13.6948L7.93865 13.9764L8.35181 13.6948ZM14.8407 11.2987L14.3794 11.106L14.8407 11.2987ZM14.8407 9.70133L14.3794 9.89404L14.8407 9.70133ZM20.5 10.5C20.5 15.7467 16.2467 20 11 20V21C16.799 21 21.5 16.299 21.5 10.5H20.5ZM11 20C5.75329 20 1.5 15.7467 1.5 10.5H0.5C0.5 16.299 5.20101 21 11 21V20ZM1.5 10.5C1.5 5.25329 5.75329 1 11 1V0C5.20101 0 0.5 4.70101 0.5 10.5H1.5ZM11 1C16.2467 1 20.5 5.25329 20.5 10.5H21.5C21.5 4.70101 16.799 0 11 0V1ZM8.5 10.5C8.5 9.59786 8.50044 8.95379 8.54213 8.46937C8.58417 7.98101 8.66361 7.73549 8.76497 7.58679L7.93865 7.02358C7.6882 7.39104 7.59174 7.85005 7.54582 8.38362C7.49956 8.92112 7.5 9.61637 7.5 10.5H8.5ZM12.6831 7.35333C11.9665 6.91228 11.3986 6.56215 10.9351 6.33428C10.475 6.10812 10.0376 5.95992 9.59388 6.00963L9.70522 7.00341C9.85676 6.98643 10.0797 7.0281 10.4939 7.23171C10.9046 7.43361 11.4248 7.75314 12.159 8.20497L12.6831 7.35333ZM8.76497 7.58679C8.99377 7.25111 9.33781 7.04457 9.70522 7.00341L9.59388 6.00963C8.92288 6.08481 8.32358 6.45883 7.93865 7.02358L8.76497 7.58679ZM12.159 12.795C11.4248 13.2469 10.9046 13.5664 10.4939 13.7683C10.0797 13.9719 9.85676 14.0136 9.70522 13.9966L9.59388 14.9904C10.0376 15.0401 10.475 14.8919 10.935 14.6657C11.3986 14.4378 11.9665 14.0877 12.6831 13.6467L12.159 12.795ZM7.5 10.5C7.5 11.3836 7.49956 12.0789 7.54582 12.6164C7.59174 13.1499 7.6882 13.609 7.93865 13.9764L8.76497 13.4132C8.66361 13.2645 8.58417 13.019 8.54213 12.5306C8.50044 12.0462 8.5 11.4021 8.5 10.5H7.5ZM9.70522 13.9966C9.33781 13.9554 8.99377 13.7489 8.76497 13.4132L7.93865 13.9764C8.32358 14.5412 8.92288 14.9152 9.59388 14.9904L9.70522 13.9966ZM12.6831 13.6467C13.4 13.2055 13.9681 12.8565 14.3845 12.5429C14.8008 12.2294 15.1288 11.9064 15.3021 11.4914L14.3794 11.106C14.3093 11.2738 14.1529 11.4655 13.7829 11.7441C13.413 12.0227 12.8929 12.3433 12.159 12.795L12.6831 13.6467ZM12.159 8.20497C12.8929 8.65667 13.413 8.97733 13.7829 9.25591C14.1529 9.53454 14.3093 9.72616 14.3794 9.89404L15.3021 9.50863C15.1288 9.09365 14.8008 8.77062 14.3845 8.4571C13.9681 8.14352 13.4 7.79452 12.6831 7.35333L12.159 8.20497ZM15.3021 11.4914C15.566 10.8597 15.566 10.1403 15.3021 9.50863L14.3794 9.89404C14.5402 10.2791 14.5402 10.7209 14.3794 11.106L15.3021 11.4914Z" fill="url(#paint0_linear_555_249)"/>
<defs>
<linearGradient id="paint0_linear_555_249" x1="1" y1="0.5" x2="23.8352" y2="4.56212" gradientUnits="userSpaceOnUse">
<stop stop-color="#9327FF"/>
<stop offset="1" stop-color="#FFA927"/>
</linearGradient>
</defs>
</svg>
